<?xml version="1.0" encoding="UTF-8" standalone="no"?><!-- Generator: Gravit.io --><svg xmlns="http://www.w3.org/2000/svg" xmlns:xlink="http://www.w3.org/1999/xlink" style="isolation:isolate" viewBox="0 0 1656 1416" width="1656pt" height="1416pt"><defs><clipPath id="_clipPath_dbpAnoMD19nZfDkekW18JufLIU8GHJOy"><rect width="1656" height="1416"/></clipPath></defs><g clip-path="url(#_clipPath_dbpAnoMD19nZfDkekW18JufLIU8GHJOy)"><clipPath id="_clipPath_ANZwfageoJxUeVivnhRI9qbIvrKQf6fe"><path d=" M 0 0 L 0 1416 L 1656 1416 L 1656 0 L 0 0 Z " fill="rgb(255,255,255)"/></clipPath><g clip-path="url(#_clipPath_ANZwfageoJxUeVivnhRI9qbIvrKQf6fe)"><path d=" M 1177.95 127.453 C 1175.22 127.453 1173.01 125.238 1173.01 122.508 C 1173.01 119.772 1175.22 117.557 1177.95 117.557 C 1180.68 117.556 1182.91 119.772 1182.91 122.508 C 1182.91 125.238 1180.68 127.453 1177.95 127.453 Z " fill="rgb(243,240,248)"/><path d=" M 1227.51 127.453 C 1224.8 127.453 1222.59 125.238 1222.59 122.508 C 1222.59 119.772 1224.8 117.557 1227.51 117.557 C 1230.26 117.557 1232.48 119.772 1232.48 122.508 C 1232.48 125.238 1230.26 127.453 1227.51 127.453 Z " fill="rgb(243,240,248)"/><path d=" M 1277.09 127.453 C 1274.36 127.453 1272.15 125.238 1272.15 122.508 C 1272.15 119.772 1274.37 117.557 1277.09 117.557 C 1279.82 117.557 1282.05 119.772 1282.05 122.508 C 1282.05 125.238 1279.82 127.453 1277.09 127.453 Z " fill="rgb(243,240,248)"/><path d=" M 1326.67 127.453 C 1323.95 127.453 1321.73 125.238 1321.73 122.508 C 1321.73 119.772 1323.95 117.557 1326.67 117.557 C 1329.4 117.557 1331.64 119.772 1331.64 122.508 C 1331.64 125.238 1329.4 127.453 1326.67 127.453 Z " fill="rgb(243,240,248)"/><path d=" M 1376.24 127.453 C 1373.52 127.453 1371.3 125.238 1371.3 122.508 C 1371.3 119.772 1373.52 117.557 1376.24 117.557 C 1378.97 117.557 1381.2 119.772 1381.2 122.508 C 1381.2 125.238 1378.97 127.453 1376.24 127.453 Z " fill="rgb(243,240,248)"/><path d=" M 1425.81 127.453 C 1423.09 127.453 1420.88 125.238 1420.88 122.508 C 1420.88 119.772 1423.09 117.557 1425.81 117.556 C 1428.55 117.557 1430.77 119.772 1430.77 122.508 C 1430.77 125.238 1428.55 127.453 1425.81 127.453 Z " fill="rgb(243,240,248)"/><path d=" M 1475.39 127.453 C 1472.66 127.453 1470.45 125.238 1470.45 122.508 C 1470.45 119.772 1472.66 117.557 1475.39 117.557 C 1478.13 117.557 1480.35 119.772 1480.35 122.508 C 1480.35 125.238 1478.13 127.453 1475.39 127.453 Z " fill="rgb(243,240,248)"/><path d=" M 1376.24 177.031 C 1373.52 177.031 1371.3 174.816 1371.3 172.088 C 1371.3 169.35 1373.52 167.134 1376.24 167.134 C 1378.97 167.134 1381.2 169.35 1381.2 172.088 C 1381.2 174.816 1378.97 177.031 1376.24 177.031 Z " fill="rgb(243,240,248)"/><path d=" M 1425.81 177.031 C 1423.09 177.031 1420.88 174.815 1420.88 172.087 C 1420.88 169.35 1423.09 167.134 1425.81 167.134 C 1428.55 167.134 1430.77 169.35 1430.77 172.087 C 1430.77 174.815 1428.55 177.031 1425.81 177.031 Z " fill="rgb(243,240,248)"/><path d=" M 1475.39 177.031 C 1472.66 177.031 1470.45 174.816 1470.45 172.088 C 1470.45 169.35 1472.66 167.134 1475.39 167.134 C 1478.13 167.134 1480.35 169.35 1480.35 172.087 C 1480.35 174.815 1478.13 177.031 1475.39 177.031 Z " fill="rgb(243,240,248)"/><path d=" M 1376.24 226.609 C 1373.52 226.609 1371.3 224.394 1371.3 221.665 C 1371.3 218.929 1373.52 216.713 1376.24 216.713 C 1378.97 216.713 1381.2 218.929 1381.2 221.665 C 1381.2 224.394 1378.97 226.609 1376.24 226.609 Z " fill="rgb(243,240,248)"/><path d=" M 1425.81 226.609 C 1423.09 226.609 1420.88 224.394 1420.88 221.665 C 1420.88 218.929 1423.09 216.713 1425.81 216.713 C 1428.55 216.713 1430.77 218.929 1430.77 221.665 C 1430.77 224.394 1428.55 226.609 1425.81 226.609 Z " fill="rgb(243,240,248)"/><path d=" M 1475.39 226.609 C 1472.66 226.609 1470.45 224.394 1470.45 221.665 C 1470.45 218.929 1472.66 216.713 1475.39 216.713 C 1478.13 216.713 1480.35 218.929 1480.35 221.664 C 1480.35 224.394 1478.13 226.609 1475.39 226.609 Z " fill="rgb(243,240,248)"/><path d=" M 1227.52 177.031 C 1224.8 177.031 1222.58 174.816 1222.58 172.088 C 1222.58 169.35 1224.8 167.134 1227.52 167.134 C 1230.25 167.134 1232.48 169.35 1232.48 172.088 C 1232.48 174.816 1230.25 177.031 1227.52 177.031 Z " fill="rgb(243,240,248)"/><path d=" M 1277.09 177.031 C 1274.37 177.031 1272.16 174.815 1272.16 172.087 C 1272.16 169.35 1274.37 167.134 1277.09 167.134 C 1279.83 167.134 1282.05 169.35 1282.05 172.087 C 1282.05 174.815 1279.83 177.031 1277.09 177.031 Z " fill="rgb(243,240,248)"/><path d=" M 1326.67 177.031 C 1323.94 177.031 1321.73 174.816 1321.73 172.088 C 1321.73 169.35 1323.94 167.134 1326.67 167.134 C 1329.41 167.134 1331.63 169.35 1331.63 172.087 C 1331.63 174.815 1329.41 177.031 1326.67 177.031 Z " fill="rgb(243,240,248)"/><path d=" M 1227.52 226.609 C 1224.8 226.609 1222.58 224.394 1222.58 221.665 C 1222.58 218.929 1224.8 216.713 1227.52 216.713 C 1230.25 216.713 1232.48 218.929 1232.48 221.665 C 1232.48 224.394 1230.25 226.609 1227.52 226.609 Z " fill="rgb(243,240,248)"/><path d=" M 1177.95 177.031 C 1175.23 177.031 1173.01 174.816 1173.01 172.088 C 1173.01 169.35 1175.23 167.134 1177.95 167.134 C 1180.68 167.134 1182.91 169.35 1182.91 172.088 C 1182.91 174.816 1180.68 177.031 1177.95 177.031 Z " fill="rgb(243,240,248)"/><path d=" M 1177.95 226.609 C 1175.23 226.609 1173.01 224.394 1173.01 221.665 C 1173.01 218.929 1175.23 216.713 1177.95 216.713 C 1180.68 216.713 1182.91 218.929 1182.91 221.665 C 1182.91 224.394 1180.68 226.609 1177.95 226.609 Z " fill="rgb(243,240,248)"/><path d=" M 1277.09 226.609 C 1274.37 226.609 1272.16 224.394 1272.16 221.665 C 1272.16 218.929 1274.37 216.713 1277.09 216.713 C 1279.83 216.713 1282.05 218.929 1282.05 221.665 C 1282.05 224.394 1279.83 226.609 1277.09 226.609 Z " fill="rgb(243,240,248)"/><path d=" M 1326.67 226.609 C 1323.94 226.609 1321.73 224.394 1321.73 221.665 C 1321.73 218.929 1323.94 216.713 1326.67 216.713 C 1329.41 216.713 1331.63 218.929 1331.63 221.664 C 1331.63 224.394 1329.41 226.609 1326.67 226.609 Z " fill="rgb(243,240,248)"/><path d=" M 1177.95 276.188 C 1175.22 276.188 1173.01 273.972 1173.01 271.244 C 1173.01 268.506 1175.22 266.292 1177.95 266.291 C 1180.68 266.291 1182.91 268.507 1182.91 271.244 C 1182.91 273.972 1180.68 276.188 1177.95 276.188 Z " fill="rgb(243,240,248)"/><path d=" M 1227.51 276.188 C 1224.8 276.188 1222.59 273.972 1222.59 271.244 C 1222.59 268.507 1224.8 266.292 1227.51 266.292 C 1227.51 266.292 1227.51 266.292 1227.51 266.292 C 1230.26 266.292 1232.48 268.507 1232.48 271.244 C 1232.48 273.972 1230.26 276.188 1227.51 276.188 Z " fill="rgb(243,240,248)"/><path d=" M 1277.09 276.188 C 1274.36 276.188 1272.15 273.972 1272.15 271.244 C 1272.15 268.506 1274.36 266.291 1277.09 266.291 C 1279.82 266.291 1282.05 268.506 1282.05 271.244 C 1282.05 273.972 1279.82 276.188 1277.09 276.188 Z " fill="rgb(243,240,248)"/><path d=" M 1326.67 276.188 C 1323.95 276.188 1321.73 273.972 1321.73 271.244 C 1321.73 268.507 1323.95 266.292 1326.67 266.292 C 1326.67 266.292 1326.67 266.292 1326.67 266.292 C 1329.4 266.291 1331.64 268.507 1331.64 271.244 C 1331.64 273.972 1329.4 276.188 1326.67 276.188 Z " fill="rgb(243,240,248)"/><path d=" M 1376.24 276.188 C 1373.52 276.188 1371.3 273.972 1371.3 271.244 C 1371.3 268.507 1373.52 266.291 1376.24 266.291 C 1378.97 266.291 1381.2 268.507 1381.2 271.244 C 1381.2 273.972 1378.97 276.188 1376.24 276.188 Z " fill="rgb(243,240,248)"/><path d=" M 1425.81 276.188 C 1423.09 276.188 1420.88 273.972 1420.88 271.244 C 1420.88 268.507 1423.09 266.291 1425.81 266.291 C 1428.55 266.292 1430.77 268.506 1430.77 271.244 C 1430.77 273.972 1428.55 276.188 1425.81 276.188 Z " fill="rgb(243,240,248)"/><path d=" M 1475.39 276.188 C 1472.66 276.188 1470.45 273.972 1470.45 271.244 C 1470.45 268.507 1472.66 266.291 1475.39 266.291 C 1478.13 266.292 1480.35 268.506 1480.35 271.244 C 1480.35 273.972 1478.13 276.188 1475.39 276.188 Z " fill="rgb(243,240,248)"/><path d=" M 1177.95 325.766 C 1175.22 325.766 1173.01 323.551 1173.01 320.822 C 1173.01 318.086 1175.22 315.87 1177.95 315.87 C 1180.68 315.87 1182.91 318.085 1182.91 320.822 C 1182.91 323.551 1180.68 325.766 1177.95 325.766 Z " fill="rgb(243,240,248)"/><path d=" M 1227.51 325.766 C 1224.8 325.766 1222.59 323.551 1222.59 320.822 C 1222.59 318.085 1224.8 315.87 1227.51 315.87 C 1230.26 315.87 1232.48 318.085 1232.48 320.822 C 1232.48 323.551 1230.26 325.766 1227.51 325.766 Z " fill="rgb(243,240,248)"/><path d=" M 1277.09 325.766 C 1274.36 325.766 1272.15 323.551 1272.15 320.822 C 1272.15 318.086 1274.37 315.87 1277.09 315.87 C 1279.82 315.87 1282.05 318.086 1282.05 320.822 C 1282.05 323.551 1279.82 325.766 1277.09 325.766 Z " fill="rgb(243,240,248)"/><path d=" M 1326.67 325.766 C 1323.95 325.766 1321.73 323.551 1321.73 320.822 C 1321.73 318.085 1323.95 315.87 1326.67 315.87 C 1329.4 315.87 1331.64 318.085 1331.64 320.822 C 1331.64 323.551 1329.4 325.766 1326.67 325.766 Z " fill="rgb(243,240,248)"/><path d=" M 1376.24 325.766 C 1373.52 325.766 1371.3 323.551 1371.3 320.822 C 1371.3 318.085 1373.52 315.87 1376.24 315.87 C 1378.97 315.87 1381.2 318.085 1381.2 320.822 C 1381.2 323.551 1378.97 325.766 1376.24 325.766 Z " fill="rgb(243,240,248)"/><path d=" M 1425.81 325.766 C 1423.09 325.766 1420.88 323.551 1420.88 320.822 C 1420.88 318.085 1423.09 315.87 1425.81 315.869 C 1428.55 315.87 1430.77 318.085 1430.77 320.822 C 1430.77 323.551 1428.55 325.766 1425.81 325.766 Z " fill="rgb(243,240,248)"/><path d=" M 1475.39 325.766 C 1472.66 325.766 1470.45 323.551 1470.45 320.822 C 1470.45 318.085 1472.66 315.87 1475.39 315.87 C 1478.13 315.87 1480.35 318.086 1480.35 320.822 C 1480.35 323.551 1478.13 325.766 1475.39 325.766 Z " fill="rgb(243,240,248)"/><path d=" M 1277.09 375.345 C 1274.37 375.345 1272.15 373.13 1272.15 370.401 C 1272.15 367.664 1274.36 365.448 1277.09 365.448 C 1279.82 365.448 1282.05 367.664 1282.05 370.401 C 1282.05 373.13 1279.82 375.345 1277.09 375.345 Z " fill="rgb(243,240,248)"/><path d=" M 1326.67 375.345 C 1323.95 375.345 1321.73 373.13 1321.73 370.401 C 1321.73 367.663 1323.95 365.448 1326.67 365.448 C 1329.4 365.448 1331.64 367.663 1331.64 370.401 C 1331.64 373.13 1329.4 375.345 1326.67 375.345 Z " fill="rgb(243,240,248)"/><path d=" M 1376.24 375.345 C 1373.52 375.344 1371.3 373.13 1371.3 370.401 C 1371.3 367.663 1373.52 365.448 1376.24 365.448 C 1378.97 365.448 1381.2 367.663 1381.2 370.401 C 1381.2 373.13 1378.97 375.345 1376.24 375.345 Z " fill="rgb(243,240,248)"/><path d=" M 1425.82 375.344 C 1425.82 375.344 1425.81 375.344 1425.81 375.344 C 1423.09 375.345 1420.88 373.13 1420.88 370.401 C 1420.88 367.664 1423.09 365.448 1425.81 365.448 C 1428.55 365.448 1430.77 367.664 1430.77 370.401 C 1430.77 373.13 1428.55 375.344 1425.82 375.344 Z " fill="rgb(243,240,248)"/><path d=" M 1475.39 375.345 C 1472.66 375.345 1470.45 373.13 1470.45 370.401 C 1470.45 367.663 1472.66 365.448 1475.39 365.448 C 1478.13 365.448 1480.35 367.664 1480.35 370.401 C 1480.35 373.13 1478.13 375.345 1475.39 375.345 Z " fill="rgb(243,240,248)"/><path d=" M 1277.09 424.923 C 1274.37 424.923 1272.15 422.707 1272.15 419.979 C 1272.15 417.242 1274.36 415.027 1277.09 415.027 C 1279.82 415.027 1282.05 417.242 1282.05 419.979 C 1282.05 422.707 1279.82 424.923 1277.09 424.923 Z " fill="rgb(243,240,248)"/><path d=" M 1326.67 424.923 C 1323.95 424.923 1321.73 422.707 1321.73 419.979 C 1321.73 417.242 1323.95 415.027 1326.67 415.027 C 1329.4 415.027 1331.64 417.242 1331.64 419.979 C 1331.64 422.707 1329.4 424.923 1326.67 424.923 Z " fill="rgb(243,240,248)"/><path d=" M 1376.24 424.923 C 1373.52 424.923 1371.3 422.707 1371.3 419.979 C 1371.3 417.242 1373.52 415.027 1376.24 415.027 C 1378.97 415.027 1381.2 417.242 1381.2 419.979 C 1381.2 422.707 1378.97 424.923 1376.24 424.923 Z " fill="rgb(243,240,248)"/><path d=" M 1425.81 424.924 C 1423.09 424.923 1420.88 422.707 1420.88 419.979 C 1420.88 417.242 1423.09 415.027 1425.81 415.027 C 1428.55 415.027 1430.77 417.242 1430.77 419.979 C 1430.77 422.707 1428.55 424.923 1425.81 424.924 Z " fill="rgb(243,240,248)"/><path d=" M 1475.39 424.923 C 1472.66 424.923 1470.45 422.707 1470.45 419.979 C 1470.45 417.242 1472.66 415.027 1475.39 415.027 C 1478.13 415.027 1480.35 417.242 1480.35 419.979 C 1480.35 422.707 1478.13 424.923 1475.39 424.923 Z " fill="rgb(243,240,248)"/><path d=" M 1227.51 474.502 C 1226.75 474.502 1226.03 474.328 1225.39 474.018 C 1226.67 471.041 1227.9 467.975 1229.05 464.849 C 1231.04 465.492 1232.48 467.354 1232.48 469.557 C 1232.48 472.287 1230.26 474.502 1227.51 474.502 Z " fill="rgb(243,240,248)"/><path d=" M 1272.25 470.56 C 1272.19 470.236 1272.15 469.901 1272.15 469.557 C 1272.15 466.82 1274.36 464.61 1277.09 464.61 C 1279.19 464.61 1281 465.918 1281.72 467.769 C 1278.53 468.587 1275.37 469.526 1272.25 470.56 Z " fill="rgb(243,240,248)"/><path d=" M 1330.81 466.826 C 1328.57 466.237 1326.31 465.75 1324.05 465.36 C 1324.81 464.884 1325.71 464.609 1326.67 464.609 C 1328.39 464.61 1329.92 465.489 1330.81 466.826 Z " fill="rgb(243,240,248)"/><path d=" M 1376.24 474.502 C 1373.52 474.502 1371.3 472.286 1371.3 469.557 C 1371.3 466.821 1373.52 464.61 1376.24 464.61 C 1378.97 464.61 1381.2 466.821 1381.2 469.557 C 1381.2 472.286 1378.97 474.502 1376.24 474.502 Z " fill="rgb(243,240,248)"/><path d=" M 1425.81 474.502 C 1423.09 474.502 1420.88 472.287 1420.88 469.557 C 1420.88 466.821 1423.09 464.61 1425.81 464.61 C 1428.55 464.61 1430.77 466.821 1430.77 469.557 C 1430.77 472.287 1428.55 474.502 1425.81 474.502 Z " fill="rgb(243,240,248)"/><path d=" M 1475.39 474.502 C 1472.66 474.502 1470.45 472.286 1470.45 469.557 C 1470.45 466.821 1472.66 464.61 1475.39 464.61 C 1478.13 464.609 1480.35 466.82 1480.35 469.557 C 1480.35 472.287 1478.13 474.502 1475.39 474.502 Z " fill="rgb(243,240,248)"/><path d=" M 1425.81 524.08 C 1423.09 524.08 1420.88 521.864 1420.88 519.136 C 1420.88 516.403 1423.09 514.184 1425.82 514.184 C 1428.55 514.184 1430.77 516.403 1430.77 519.136 C 1430.77 521.864 1428.55 524.08 1425.81 524.08 Z " fill="rgb(243,240,248)"/><path d=" M 1475.39 524.08 C 1472.66 524.08 1470.45 521.864 1470.45 519.136 C 1470.45 516.403 1472.66 514.184 1475.39 514.184 C 1478.13 514.184 1480.35 516.403 1480.35 519.136 C 1480.35 521.864 1478.13 524.08 1475.39 524.08 Z " fill="rgb(243,240,248)"/><path d=" M 1425.82 573.658 C 1425.82 573.658 1425.81 573.658 1425.81 573.658 C 1423.09 573.659 1420.88 571.448 1420.88 568.714 C 1420.88 565.978 1423.09 563.762 1425.81 563.762 C 1428.55 563.762 1430.77 565.978 1430.77 568.714 C 1430.77 571.447 1428.55 573.658 1425.82 573.658 Z " fill="rgb(243,240,248)"/><path d=" M 1475.39 573.659 C 1472.66 573.659 1470.45 571.447 1470.45 568.715 C 1470.45 565.977 1472.66 563.762 1475.39 563.762 C 1478.13 563.762 1480.35 565.978 1480.35 568.714 C 1480.35 571.448 1478.13 573.659 1475.39 573.659 Z " fill="rgb(243,240,248)"/><path d=" M 1381.11 619.24 C 1377.87 618.49 1374.64 617.82 1371.42 617.21 C 1371.91 615 1373.89 613.34 1376.24 613.34 C 1378.97 613.34 1381.2 615.56 1381.2 618.29 C 1381.2 618.62 1381.17 618.94 1381.11 619.24 Z " fill="rgb(243,240,248)"/><path d=" M 1425.82 623.24 C 1425.82 623.24 1425.81 623.24 1425.81 623.24 C 1423.09 623.24 1420.88 621.03 1420.88 618.29 C 1420.88 615.56 1423.09 613.34 1425.81 613.34 C 1428.55 613.34 1430.77 615.56 1430.77 618.29 C 1430.77 621.02 1428.55 623.24 1425.82 623.24 Z " fill="rgb(243,240,248)"/><path d=" M 1475.39 623.24 C 1472.66 623.24 1470.45 621.03 1470.45 618.29 C 1470.45 615.56 1472.66 613.34 1475.39 613.34 C 1478.13 613.34 1480.35 615.56 1480.35 618.29 C 1480.35 621.03 1478.13 623.24 1475.39 623.24 Z " fill="rgb(243,240,248)"/><path d=" M 1475.39 672.82 C 1472.66 672.82 1470.45 670.6 1470.45 667.88 C 1470.45 665.14 1472.66 662.92 1475.39 662.92 C 1478.13 662.92 1480.35 665.14 1480.35 667.88 C 1480.35 670.6 1478.13 672.82 1475.39 672.82 Z " fill="rgb(243,240,248)"/><path d=" M 488.1 360.635 C 488.1 360.635 479.623 311.399 452.365 273.074 C 425.108 234.748 342.61 254.071 320.992 196.739 C 299.374 139.41 355.502 16.966 416.228 57.22 C 476.953 97.476 450.324 247.614 488.636 269.334 C 526.947 291.055 545.038 301.38 545.038 301.38 C 545.038 301.38 559.563 336.715 536.658 353.878 C 513.755 371.044 489.138 367.863 488.1 360.635 Z " fill="rgb(234,238,244)"/><path d=" M 625.318 159.356 C 625.43 198.46 591.943 227.424 564.226 225.2 C 536.164 223.164 523.148 194.154 522.929 159.356 C 523.15 124.553 536.168 95.539 564.226 93.511 C 591.947 91.296 625.424 120.247 625.318 159.356 Z " fill="rgb(234,238,244)"/><path d=" M 362.913 439.253 C 362.996 469.417 337.169 491.741 315.794 490.036 C 294.152 488.468 284.11 466.087 283.943 439.253 C 284.121 412.41 294.132 390.034 315.794 388.47 C 337.184 386.761 362.998 409.089 362.913 439.253 Z " fill="rgb(234,238,244)"/><path d=" M 373.498 317.447 C 373.498 328.688 364.385 337.798 353.146 337.798 C 341.908 337.798 332.797 328.688 332.797 317.447 C 332.797 306.209 341.908 297.098 353.146 297.098 C 364.385 297.098 373.498 306.209 373.498 317.447 Z " fill="rgb(234,238,244)"/><path d=" M 1590.97 854.17 C 1560.51 789.75 1442.24 836.82 1442.24 836.82 C 1442.24 836.82 1530.74 789.39 1480.96 689.77 C 1438.84 605.463 1318.23 610.26 1282.2 613.71 C 1319.2 608.68 1440.68 585.565 1381.22 503.612 C 1316.91 414.935 1213.26 501.286 1197.67 515.114 C 1238.77 481.258 1276.18 339.446 1177.01 329.753 C 1076.18 319.896 1062.72 440.935 1062.72 440.935 C 1062.72 440.935 947.33 197.129 726.02 269.641 C 504.719 342.169 559.78 526.705 559.78 526.705 C 559.78 526.705 341.422 490.67 292.831 660.33 C 189.436 1021.34 1137.64 1000.41 1428.72 961.34 C 1476.23 954.96 1621.42 918.59 1590.97 854.17 Z " fill="rgb(234,238,244)"/><path d=" M 237.085 1320.76 L 839.78 1320.76 C 839.78 1320.76 592.039 648.88 500.168 591.389 C 400.708 529.147 217.085 532.802 133.154 560.578 C 49.222 588.353 92.727 1187.59 237.085 1320.76 Z " fill="rgb(192,198,221)"/><path d=" M 839.78 1320.76 L 455.583 1320.76 L 455.583 1320.76 L 839.78 1320.76 C 839.78 1320.76 839.78 1320.76 839.78 1320.76 Z  M 394.542 1320.76 L 237.085 1320.76 C 233.209 1317.18 229.408 1313.28 225.678 1309.05 C 229.409 1313.28 233.208 1317.18 237.085 1320.76 L 332.193 1320.76 L 332.193 1320.76 L 394.542 1320.76 L 394.542 1320.76 Z  M 225.671 1309.04 C 225.642 1309.01 225.613 1308.97 225.584 1308.94 C 225.618 1308.98 225.637 1309 225.671 1309.04 Z  M 225.536 1308.89 C 225.513 1308.86 225.494 1308.84 225.471 1308.81 C 225.496 1308.84 225.511 1308.86 225.536 1308.89 Z  M 225.355 1308.68 C 225.346 1308.67 225.334 1308.66 225.325 1308.65 C 225.333 1308.66 225.347 1308.67 225.355 1308.68 Z  M 225.218 1308.52 C 225.212 1308.52 225.204 1308.51 225.199 1308.5 C 225.207 1308.51 225.209 1308.51 225.218 1308.52 Z " fill="rgb(231,236,248)"/><path d=" M 332.193 1320.76 L 237.085 1320.76 C 233.208 1317.18 229.409 1313.28 225.678 1309.05 L 225.671 1309.04 C 225.637 1309 225.618 1308.98 225.584 1308.94 C 225.566 1308.92 225.554 1308.91 225.536 1308.89 C 225.511 1308.86 225.496 1308.84 225.471 1308.81 C 225.433 1308.77 225.393 1308.72 225.355 1308.68 C 225.347 1308.67 225.333 1308.66 225.325 1308.65 C 225.287 1308.6 225.255 1308.57 225.218 1308.52 C 225.209 1308.51 225.207 1308.51 225.199 1308.5 C 181.781 1258.89 148.328 1166.44 125.64 1063.01 C 132.231 1062.85 138.814 1062.52 145.362 1061.91 C 166.206 1059.95 188.367 1055.65 206.204 1044.09 C 223.124 1033.12 233.395 1013.91 227.006 993.69 C 219.222 969.05 187.86 952.12 194.965 923.46 C 197.775 912.12 206.525 904.04 214.559 896.17 C 224.172 886.74 232.975 876.69 237.77 863.9 C 242.761 850.58 245.308 836.33 243.916 822.13 C 242.8 810.73 239.089 799.81 234.759 789.27 C 230.634 779.22 225.835 769.33 223.242 758.74 C 220.491 747.49 220.818 736.08 224.638 725.11 C 230.31 708.81 241.787 694.58 251.615 680.62 C 262.827 664.69 274.409 649.02 285.885 633.28 C 306.704 604.726 327.227 575.79 344.326 544.818 C 360.284 546.481 376.145 548.791 391.627 551.815 C 329.83 700.43 331.245 959.95 327.446 1066.71 C 251.674 1077.31 203.78 1090.2 195.046 1104.19 L 193.599 1104.19 L 193.599 1146.12 L 195.1 1146.12 C 203.58 1159.69 248.885 1172.22 320.744 1182.64 C 309.192 1231.89 301.128 1297.63 332.193 1320.76 Z " fill="rgb(174,183,215)"/><path d=" M 547.667 192.87 C 547.667 192.87 561.778 162.306 596.246 184.177 C 630.713 206.046 684.645 247.278 689.257 322.382 C 693.869 397.484 673.246 396.465 716.656 433.777 C 760.067 471.088 798.547 465.297 786.53 530 C 774.511 594.699 750.846 581.305 748.419 653.41 C 745.994 725.52 590.899 724.39 562.631 691.85 C 534.364 659.33 499.304 653 466.924 609.3 C 434.542 565.606 472.846 543.725 440.61 504.808 C 405.097 461.929 377.261 468.325 382.7 370.904 C 388.14 273.483 416.416 231.768 435.85 213.442 C 473.46 177.978 531.496 152.744 547.667 192.87 Z " fill="rgb(23,28,128)"/><path d=" M 634.151 338.809 C 632.009 355.882 622.514 368.749 612.941 367.546 C 603.369 366.346 597.347 351.532 599.488 334.461 C 601.631 317.388 611.126 304.52 620.698 305.722 C 630.271 306.923 636.294 321.737 634.151 338.809 Z " fill="rgb(214,217,234)"/><path d=" M 627.934 336.337 C 625.158 358.452 612.858 375.116 600.461 373.56 C 588.062 372.004 580.262 352.817 583.036 330.704 C 585.81 308.592 598.111 291.926 610.508 293.482 C 622.907 295.039 630.708 314.225 627.934 336.337 Z " fill="rgb(192,198,221)"/><path d=" M 729.406 622.61 C 766.293 658.48 807.889 716.7 807.889 716.7 L 1054.7 581.38 L 1082.55 618.39 C 1082.55 618.39 883.53 901.09 805.882 884.25 C 749.705 872.06 663.947 749.11 630.517 687.47 C 644.373 678.07 726.763 623.95 729.406 622.61 Z " fill="rgb(254,148,124)"/><path d=" M 1143.48 599.261 C 1132.82 606.675 1122.98 612.81 1117.45 615.19 C 1113.19 617.02 1108.89 618.3 1104.81 619.18 C 1101.31 619.94 1098 620.4 1095.01 620.67 C 1087.27 621.4 1081.84 620.81 1081.84 620.81 L 1005.57 679.48 C 991.61 667.14 979.76 644.38 977.94 640.38 C 977.94 640.38 1052.88 592.794 1057.14 576.776 C 1057.21 576.651 1057.24 576.472 1057.27 576.339 C 1057.26 576.108 1057.23 575.852 1057.21 575.596 C 1057.11 571.792 1059.33 566.345 1062.8 560.836 C 1065.35 556.802 1068.55 552.739 1071.92 549.258 C 1080.18 540.763 1073.69 508.966 1080.94 508.034 C 1088.21 507.127 1096.96 524.556 1094.1 533.977 C 1091.27 543.38 1099.73 545.822 1107.38 540.414 L 1109.79 538.717 C 1125.07 527.92 1172.51 494.748 1179.12 501.55 C 1183.43 505.988 1165.14 521.729 1150.41 533.195 C 1168.93 519.833 1196.18 501.637 1198.18 508.522 C 1199.73 513.815 1174.51 535.548 1160.31 547.541 C 1170.8 540.209 1192.07 526.472 1194.68 529.995 C 1200.29 537.616 1179.63 553.82 1165.08 563.871 C 1174.15 558.479 1185.12 553.272 1188.64 556.975 C 1192.9 561.517 1166.33 583.432 1143.48 599.261 Z " fill="rgb(254,148,124)"/><path d=" M 1086.22 618.7 C 1085.01 618.7 1083.79 618.62 1082.55 618.39 C 1076.09 617.16 1070.21 613.28 1065.73 608.54 C 1061.2 603.75 1057.58 597.618 1057.4 590.888 C 1057.31 588.096 1057.95 585.451 1058.64 582.77 L 1058.64 582.77 C 1062.36 593.141 1072.33 600.155 1072.33 600.155 C 1076.43 608.46 1081.75 614.49 1087.89 617.9 L 1087.89 617.9 C 1088.02 618.36 1088.16 618.62 1088.25 618.63 C 1087.57 618.67 1086.9 618.7 1086.22 618.7 Z " fill="rgb(230,136,124)"/><path d=" M 1094.08 534.052 C 1094.09 534.027 1094.09 534.002 1094.1 533.977 C 1094.48 532.721 1094.66 531.324 1094.66 529.846 C 1094.66 531.324 1094.48 532.721 1094.1 533.977 C 1094.09 534.002 1094.09 534.027 1094.08 534.052 Z " fill="rgb(238,241,246)"/><path d=" M 1095.01 620.67 C 1092.53 620.15 1090.14 619.21 1087.89 617.9 L 1087.89 617.9 C 1081.75 614.49 1076.43 608.46 1072.33 600.155 C 1072.33 600.155 1062.36 593.141 1058.64 582.77 L 1058.64 582.77 C 1057.88 580.76 1057.38 578.609 1057.27 576.339 L 1057.27 576.339 L 1057.27 576.339 C 1057.26 576.108 1057.23 575.852 1057.21 575.596 C 1057.21 575.507 1057.21 575.416 1057.21 575.326 C 1057.21 571.537 1059.41 566.216 1062.8 560.836 C 1065.35 556.802 1068.55 552.739 1071.92 549.258 C 1080.18 540.763 1073.69 508.966 1080.94 508.034 C 1081.12 508.012 1081.31 508 1081.49 508 C 1087.66 508 1094.65 520.515 1094.66 529.846 C 1094.66 531.324 1094.48 532.721 1094.1 533.977 C 1094.09 534.002 1094.09 534.027 1094.08 534.052 C 1091.5 542.738 1097.23 544.013 1105.58 544.013 C 1106.2 544.013 1106.83 544.006 1107.48 543.994 C 1107.56 543.993 1107.64 543.992 1107.72 543.992 C 1115.79 543.992 1125.02 550.981 1133.21 564.496 C 1142.04 578.979 1141.1 591.876 1141.27 596.886 C 1139.84 601.766 1122.98 612.81 1117.45 615.19 L 1117.45 615.19 C 1113.19 617.02 1108.89 618.3 1104.81 619.18 C 1101.31 619.94 1098 620.4 1095.01 620.67 L 1095.01 620.67 Z " fill="rgb(254,169,150)"/><path d=" M 1140.75 581.21 C 1140.86 581.19 1140.98 581.205 1141.08 581.135 L 1164.57 564.301 L 1140.36 579.695 C 1140.16 578.94 1140 578.176 1139.78 577.424 C 1138.73 573.993 1137.45 570.602 1135.79 567.354 L 1135.85 567.334 L 1158.27 549.094 L 1135.05 565.947 C 1134.9 565.686 1134.78 565.42 1134.63 565.161 C 1132.25 561.394 1129.74 557.763 1126.89 554.366 C 1126.36 553.726 1125.8 553.099 1125.25 552.472 L 1125.33 552.447 L 1147.75 534.205 L 1124.36 551.179 L 1124.32 551.206 L 1124.24 551.355 C 1122.16 549.08 1119.94 546.93 1117.48 545.099 C 1120.58 548.214 1123.33 551.623 1125.95 555.121 C 1128.53 558.631 1131.06 562.225 1133.26 565.964 C 1135.49 569.633 1137.09 573.701 1138.58 577.776 C 1140.06 581.868 1141.32 586.044 1142.51 590.257 C 1142.14 587.214 1141.5 584.204 1140.75 581.21 Z " fill="rgb(254,148,124)"/><path d=" M 790.094 673.34 C 761.875 693.98 746.894 702.92 723.346 728.9 C 709.634 744.02 696.131 759.74 681.259 773.88 C 668.018 756.23 660.125 744.85 660.125 744.85 C 660.125 744.85 509.582 467.368 587.465 471.375 C 637.62 517.622 792.352 671.68 790.094 673.34 Z " fill="rgb(15,71,183)"/><path d=" M 715.864 664 C 690.784 651.28 668.724 633.24 652.09 610.64 C 653.678 620.09 655.123 629.57 656.297 639.08 C 660.791 675.51 662.467 712.21 662.977 748.9 C 666.375 753.68 672.687 762.45 681.259 773.88 C 696.132 759.74 709.634 744.02 723.345 728.9 C 742.64 707.61 756.194 697.76 775.983 683.54 C 755.107 680.04 734.711 673.56 715.864 664 Z " fill="rgb(23,28,128)"/><path d=" M 337.938 1123.64 C 337.938 1123.64 280.145 1282.01 332.193 1320.76 L 891.51 1320.76 C 891.51 1320.76 927.19 1167.39 697.64 1121.47 L 337.938 1123.64 Z " fill="rgb(23,28,128)"/><path d=" M 523.496 442.763 C 327.421 429.688 332.992 910.94 327.446 1066.71 C 323.428 1179.58 806.696 1141.69 766.293 1047.1 C 671.544 825.28 713.495 455.431 523.496 442.763 Z " fill="rgb(15,71,183)"/><path d=" M 439.748 617.46 C 432.814 603.146 424.989 589.283 416.516 575.816 C 408.572 593.453 400.931 611.23 393.758 629.19 C 375.61 674.65 360.212 721.42 350.658 769.48 C 344.234 801.8 340.588 834.74 340.693 867.68 C 359.398 860.4 377.438 851.52 394.304 840.58 C 413.706 828 431.896 813.12 445.034 793.89 C 456.429 777.21 463.481 757.98 465.907 737.95 C 470.94 696.38 457.68 654.47 439.748 617.46 Z " fill="rgb(23,28,128)"/><path d=" M 555.959 402.904 C 555.959 402.904 561.721 427.053 567.195 457.859 C 568.745 466.592 591.201 532.561 556.862 541.739 C 508.222 554.739 483.485 451.886 483.485 451.886 L 490.988 387.831 L 555.959 402.904 Z " fill="rgb(254,148,124)"/><path d=" M 549.961 542.837 C 552.203 542.726 554.508 542.368 556.862 541.739 C 559.914 540.923 562.516 539.659 564.725 538.027 C 562.516 539.659 559.913 540.924 556.861 541.739 C 554.505 542.369 552.205 542.727 549.961 542.837 Z " fill="rgb(15,61,155)"/><path d=" M 566.33 453.058 L 566.33 453.058 C 561.131 424.579 555.959 402.904 555.959 402.904 L 519.1 394.353 C 520.636 392.753 521.21 390.959 520.157 388.848 L 555.96 402.903 C 555.96 402.903 561.131 424.579 566.33 453.058 Z " fill="rgb(23,24,109)"/><path d=" M 575.413 498.766 C 573.788 480.328 567.958 462.158 567.195 457.859 C 566.907 456.24 566.618 454.637 566.33 453.058 L 566.33 453.058 C 566.619 454.637 566.908 456.24 567.195 457.859 C 567.958 462.159 573.788 480.328 575.413 498.766 Z " fill="rgb(15,61,155)"/><path d=" M 548.45 542.874 C 531.825 542.874 518.367 529.304 508.094 512.654 C 515.646 504.601 546.348 497.56 549.579 486.91 C 560.182 451.961 532.026 464.559 496.831 411.861 C 491.583 404.002 512.979 400.724 519.1 394.353 L 555.959 402.904 C 555.959 402.904 561.131 424.579 566.33 453.058 C 566.618 454.637 566.907 456.24 567.195 457.859 C 567.958 462.158 573.788 480.328 575.413 498.766 C 576.796 514.451 575.137 530.332 564.725 538.027 C 562.516 539.659 559.914 540.923 556.862 541.739 C 554.508 542.368 552.203 542.726 549.961 542.837 C 549.454 542.862 548.951 542.874 548.45 542.874 Z " fill="rgb(249,127,105)"/><path d=" M 619.014 266.466 C 619.014 266.466 616.373 442.281 568.033 438.675 C 517.294 434.89 468.248 396.384 458.592 368.399 C 448.936 340.415 452.011 342.01 452.011 342.01 C 452.011 342.01 434.594 339.508 433.402 310.41 C 432.21 281.311 453.639 301.52 453.639 301.52 C 453.639 301.52 514.498 218.906 557.586 222.61 C 600.675 226.314 619.014 266.466 619.014 266.466 Z " fill="rgb(254,148,124)"/><path d=" M 529.747 317.127 C 530.302 316.877 530.737 316.381 530.881 315.742 C 531.126 314.665 530.456 313.592 529.378 313.344 C 528.744 313.199 514.337 308.45 504.652 323.106 C 504.042 324.03 504.252 325.266 505.165 325.895 C 506.076 326.522 507.141 326.137 507.954 325.382 C 516.08 317.835 527.956 317.136 528.484 317.254 C 528.924 317.353 529.364 317.299 529.747 317.127 Z " fill="rgb(23,28,128)"/><path d=" M 517.519 341.356 C 518.115 346.102 521.389 349.599 524.833 349.166 C 528.276 348.734 530.585 344.536 529.99 339.792 C 529.394 335.045 526.119 331.549 522.676 331.981 C 519.232 332.413 516.924 336.611 517.519 341.356 Z " fill="rgb(23,28,128)"/><path d=" M 603.996 321.689 C 604.466 321.674 604.922 321.385 605.209 320.853 C 605.695 319.954 605.523 318.706 604.82 318.06 C 604.407 317.68 595.434 307.722 584.262 317.476 C 583.558 318.092 583.353 319.313 583.827 320.246 C 584.3 321.178 585.175 321.235 585.976 320.854 C 593.983 317.047 602.708 321.004 603.053 321.317 C 603.34 321.579 603.672 321.699 603.996 321.689 Z " fill="rgb(23,28,128)"/><path d=" M 555.659 373.47 C 555.646 373.94 555.909 374.412 556.424 374.73 C 557.292 375.267 558.549 375.166 559.234 374.502 C 559.637 374.111 570.096 365.726 561 354.012 C 560.426 353.273 559.218 352.999 558.26 353.418 C 557.302 353.837 557.195 354.707 557.529 355.529 C 560.869 363.741 556.417 372.224 556.084 372.55 C 555.806 372.822 555.667 373.146 555.659 373.47 Z " fill="rgb(23,28,128)"/><path d=" M 583.005 339.449 C 581.748 344.063 583.444 348.544 586.793 349.456 C 590.141 350.368 593.875 347.366 595.132 342.752 C 596.389 338.136 594.693 333.657 591.344 332.744 C 587.996 331.832 584.262 334.834 583.005 339.449 Z " fill="rgb(23,28,128)"/><path d=" M 588.066 396.551 C 588.066 396.551 556.377 400.463 523.496 392.487 C 523.496 392.487 523.992 424.057 558.604 422.71 C 578.733 421.926 588.066 396.551 588.066 396.551 Z " fill="rgb(255,255,255)"/><path d=" M 451.305 307.536 L 450.2 334.79 C 450.2 334.79 442.922 321.952 441.702 312.141 C 440.481 302.329 451.305 307.536 451.305 307.536 Z " fill="rgb(226,160,127)"/><path d=" M 611.834 279.453 C 610.369 261.939 593.983 243.048 591.939 240.752 C 605.202 256.677 603.667 284.54 603.218 289.888 C 588.503 305.24 564.749 317.814 534.631 292.239 C 474.665 241.291 455.878 317.836 455.878 317.836 C 455.878 317.836 439.215 246.54 487.766 222.925 C 536.319 199.311 586.631 211.362 620.114 265.665 C 620.114 265.665 617.249 271.854 611.834 279.453 Z " fill="rgb(23,28,128)"/><path d=" M 481.355 316.391 C 482.903 341.604 469.83 362.923 452.155 364.009 C 434.48 365.094 418.899 345.534 417.351 320.321 C 415.802 295.109 428.873 273.792 446.548 272.706 C 464.223 271.621 479.807 291.179 481.355 316.391 Z " fill="rgb(192,198,221)"/><path d=" M 463.023 310.196 C 464.218 329.66 454.125 346.12 440.48 346.958 C 426.834 347.796 414.804 332.695 413.608 313.23 C 412.413 293.764 422.506 277.304 436.151 276.466 C 449.796 275.628 461.827 290.73 463.023 310.196 Z " fill="rgb(214,217,234)"/><path d=" M 614.676 365.093 C 614.676 365.093 619.141 406.432 587.008 415.861 L 586.801 412.506 C 586.801 412.506 612.324 409.016 611.426 366.976 C 611.426 366.976 612.716 364.492 614.676 365.093 Z " fill="rgb(192,198,221)"/><path d=" M 593.372 410.323 C 593.644 414.75 590.307 418.527 585.877 418.799 C 582.591 419.001 579.586 417.231 578.2 414.419 L 578.13 414.356 C 577.67 413.442 577.402 412.381 577.336 411.307 C 577.064 406.88 580.464 403.033 584.892 402.761 C 587.376 402.609 589.592 403.616 591.176 405.272 L 591.181 405.34 C 592.475 406.674 593.253 408.378 593.372 410.323 Z " fill="rgb(214,217,234)"/><path d=" M 591.97 408.322 C 592.242 412.75 588.84 416.595 584.413 416.867 C 581.996 417.015 579.717 416.078 578.2 414.419 L 578.13 414.356 C 577.67 413.442 577.402 412.381 577.336 411.307 C 577.064 406.88 580.464 403.033 584.892 402.761 C 587.376 402.609 589.592 403.616 591.176 405.272 L 591.181 405.34 C 591.64 406.255 591.904 407.248 591.97 408.322 Z " fill="rgb(192,198,221)"/><path d=" M 456.52 279.464 C 456.52 279.464 508.157 220.617 543.536 215.901 C 578.914 211.186 607.935 239.644 607.935 239.644 C 607.935 239.644 598.073 203.565 543.592 205.44 C 480.782 207.602 451.383 275.54 451.383 275.54 L 456.52 279.464 Z " fill="rgb(214,217,234)"/><path d=" M 1331.64 1142.87 L 1333.6 1166.9 L 1334.88 1182.42 L 1337.52 1214.74 L 1339.9 1243.75 L 1346.24 1321.36 L 1407.51 1321.36 L 1407.28 1314.98 L 1404.32 1234.45 L 1403.33 1207.39 L 1402.06 1172.84 L 1401.57 1159.39 L 1400.96 1142.87 L 1400.21 1122.46 L 1392.74 1118.37 L 1389.24 1116.45 L 1368.96 1105.35 L 1326.68 1082.21 L 1328.84 1108.61 L 1331.64 1142.87 Z " fill="rgb(192,198,221)"/><path d=" M 455.54 1321.36 L 462.442 1225.24 L 464.969 1190.05 L 467.462 1155.21 L 468.885 1135.46 L 471.368 1100.89 L 475.564 1106.85 L 402.029 1088.26 L 401.622 1100.89 L 400.734 1128.48 L 400.155 1146.32 L 398.967 1183.23 L 397.898 1216.61 L 394.523 1321.36 L 455.54 1321.36 Z " fill="rgb(192,198,221)"/><path d=" M 1407.51 1321.36 L 1346.24 1321.36 L 1339.9 1243.75 L 1337.52 1214.74 L 1335.78 1193.42 C 1359.69 1191.12 1382 1188.65 1402.55 1186.02 L 1403.33 1207.39 L 1404.32 1234.45 L 1407.28 1314.98 L 1407.51 1321.36 Z " fill="rgb(174,183,215)"/><path d=" M 455.54 1321.36 L 394.523 1321.36 L 397.898 1216.61 L 398.684 1192.08 C 419.355 1194.18 441.302 1196.14 464.401 1197.95 L 462.442 1225.24 L 455.583 1320.76 L 455.583 1320.76 L 455.54 1321.36 Z " fill="rgb(174,183,215)"/><path d=" M 1452.4 1104.19 C 1332.37 1084.11 1118.25 1070.73 874.03 1070.73 C 629.825 1070.73 415.703 1084.11 295.667 1104.19 L 193.599 1104.19 L 193.599 1146.12 L 195.1 1146.12 C 218.148 1183.02 513.278 1212.2 874.03 1212.2 C 1234.79 1212.2 1529.92 1183.02 1552.97 1146.12 L 1554.47 1146.12 L 1554.47 1104.19 L 1452.4 1104.19 Z " fill="rgb(214,217,234)"/><path d=" M 874.03 1212.2 C 873.35 1212.2 872.66 1212.2 871.97 1212.2 C 872.65 1212.2 873.35 1212.2 874.03 1212.2 C 1052.26 1212.2 1214.48 1205.08 1335.78 1193.42 L 1335.78 1193.42 C 1214.48 1205.08 1052.26 1212.2 874.03 1212.2 Z  M 871.85 1212.2 C 871.76 1212.2 871.69 1212.2 871.61 1212.2 C 871.69 1212.2 871.76 1212.2 871.85 1212.2 Z  M 871.23 1212.2 C 871.14 1212.2 871.05 1212.2 870.97 1212.2 C 871.05 1212.2 871.14 1212.2 871.23 1212.2 Z  M 869.55 1212.2 L 869.54 1212.2 L 869.55 1212.2 Z " fill="rgb(231,236,248)"/><path d=" M 874.03 1212.2 C 873.35 1212.2 872.65 1212.2 871.97 1212.2 C 871.93 1212.2 871.89 1212.2 871.85 1212.2 C 871.76 1212.2 871.69 1212.2 871.61 1212.2 C 871.48 1212.2 871.35 1212.2 871.23 1212.2 C 871.14 1212.2 871.05 1212.2 870.97 1212.2 C 870.49 1212.2 870.02 1212.2 869.55 1212.2 L 869.54 1212.2 C 807.25 1212.16 746.961 1211.24 689.711 1209.57 C 692.671 1206.35 695.745 1203.2 699.069 1200.2 C 707.606 1192.5 716.627 1185.01 726.059 1177.9 C 769.835 1178.91 815.16 1179.48 861.66 1179.57 C 861.67 1179.57 861.68 1179.57 861.69 1179.57 C 861.87 1179.57 862.04 1179.57 862.22 1179.57 C 862.25 1179.57 862.27 1179.57 862.29 1179.57 C 862.66 1179.57 863.03 1179.57 863.39 1179.57 C 863.42 1179.57 863.44 1179.57 863.47 1179.57 C 864.63 1179.58 865.79 1179.58 866.95 1179.58 C 866.97 1179.58 866.98 1179.58 867 1179.58 C 867.36 1179.58 867.74 1179.58 868.1 1179.58 C 868.15 1179.58 868.19 1179.58 868.23 1179.58 C 868.37 1179.58 868.53 1179.58 868.67 1179.58 C 868.74 1179.58 868.81 1179.58 868.88 1179.58 C 868.99 1179.58 869.08 1179.58 869.19 1179.58 C 869.27 1179.58 869.36 1179.58 869.44 1179.58 C 869.57 1179.58 869.73 1179.58 869.87 1179.58 C 869.9 1179.58 869.93 1179.58 869.96 1179.58 C 870.1 1179.58 870.29 1179.58 870.42 1179.58 C 870.47 1179.58 870.5 1179.58 870.54 1179.58 C 870.7 1179.58 870.83 1179.58 870.99 1179.58 C 871.05 1179.58 871.11 1179.58 871.17 1179.58 C 871.29 1179.58 871.35 1179.58 871.47 1179.58 C 871.56 1179.58 871.67 1179.58 871.76 1179.58 C 871.8 1179.58 871.83 1179.58 871.87 1179.58 C 872.59 1179.58 873.32 1179.58 874.03 1179.58 C 888.76 1179.58 903.35 1179.53 917.84 1179.44 C 1208.64 1177.52 1449.84 1156.6 1527.87 1128.5 C 1545.19 1122.26 1554.47 1115.66 1554.47 1108.84 L 1554.47 1146.12 L 1552.97 1146.12 C 1543.55 1161.19 1488.72 1174.98 1402.55 1186.02 C 1382 1188.65 1359.69 1191.12 1335.78 1193.42 L 1335.78 1193.42 C 1214.48 1205.08 1052.26 1212.2 874.03 1212.2 Z " fill="rgb(194,201,227)"/><path d=" M 1554.47 1108.84 C 1554.47 1107.28 1553.98 1105.73 1553.02 1104.19 L 1554.47 1104.19 L 1554.47 1108.84 Z " fill="rgb(194,201,227)"/><path d=" M 1554.47 1108.84 C 1554.47 1147.91 1249.83 1179.58 874.03 1179.58 C 498.24 1179.58 193.599 1147.91 193.599 1108.84 C 193.599 1069.78 498.24 1038.11 874.03 1038.11 C 1249.83 1038.11 1554.47 1069.78 1554.47 1108.84 Z " fill="rgb(234,238,244)"/><path d=" M 874.03 1179.58 C 873.32 1179.58 872.59 1179.58 871.87 1179.58 C 872.59 1179.58 873.32 1179.58 874.03 1179.58 C 888.76 1179.58 903.35 1179.53 917.84 1179.44 C 903.35 1179.53 888.76 1179.58 874.03 1179.58 Z  M 871.76 1179.58 C 871.67 1179.58 871.56 1179.58 871.47 1179.58 C 871.56 1179.58 871.67 1179.58 871.76 1179.58 Z  M 871.17 1179.58 C 871.11 1179.58 871.05 1179.58 870.99 1179.58 C 871.03 1179.58 871.13 1179.58 871.17 1179.58 Z  M 870.54 1179.58 C 870.5 1179.58 870.47 1179.58 870.42 1179.58 C 870.47 1179.58 870.5 1179.58 870.54 1179.58 Z  M 869.96 1179.58 C 869.93 1179.58 869.9 1179.58 869.87 1179.58 C 869.91 1179.58 869.91 1179.58 869.96 1179.58 Z  M 869.44 1179.58 C 869.36 1179.58 869.27 1179.58 869.19 1179.58 C 869.26 1179.58 869.37 1179.58 869.44 1179.58 Z  M 868.88 1179.58 C 868.81 1179.58 868.74 1179.58 868.67 1179.58 C 868.74 1179.58 868.81 1179.58 868.88 1179.58 Z  M 868.23 1179.58 C 868.19 1179.58 868.15 1179.58 868.1 1179.58 C 868.15 1179.58 868.18 1179.58 868.23 1179.58 Z  M 867 1179.58 C 866.98 1179.58 866.97 1179.58 866.95 1179.58 C 866.98 1179.58 866.98 1179.58 867 1179.58 Z  M 863.47 1179.57 C 863.44 1179.57 863.42 1179.57 863.39 1179.57 C 863.42 1179.57 863.44 1179.57 863.47 1179.57 Z  M 862.29 1179.57 C 862.27 1179.57 862.25 1179.57 862.22 1179.57 C 862.25 1179.57 862.27 1179.57 862.29 1179.57 Z  M 861.69 1179.57 C 861.68 1179.57 861.67 1179.57 861.66 1179.57 L 861.69 1179.57 Z " fill="rgb(175,186,220)"/><path d=" M 1553.02 1104.19 L 1553.02 1104.19 C 1552.59 1103.5 1552.06 1102.81 1551.43 1102.12 C 1552.06 1102.81 1552.59 1103.5 1553.02 1104.19 Z " fill="rgb(231,236,248)"/><path d=" M 1527.87 1128.5 C 1545.19 1122.26 1554.47 1115.66 1554.47 1108.84 C 1554.47 1107.28 1553.98 1105.73 1553.02 1104.19 L 1553.02 1104.19 C 1553.98 1105.73 1554.47 1107.28 1554.47 1108.84 L 1554.47 1108.84 C 1554.47 1115.66 1545.19 1122.26 1527.87 1128.5 Z " fill="rgb(175,186,220)"/><path d=" M 1551.43 1102.11 C 1551.41 1102.09 1551.4 1102.08 1551.39 1102.06 C 1551.4 1102.08 1551.41 1102.09 1551.43 1102.11 Z  M 1551.38 1102.05 C 1551.36 1102.04 1551.35 1102.02 1551.34 1102.01 C 1551.35 1102.02 1551.36 1102.04 1551.38 1102.05 Z  M 1551.32 1101.99 C 1551.31 1101.98 1551.3 1101.97 1551.29 1101.96 C 1551.3 1101.97 1551.31 1101.98 1551.32 1101.99 Z  M 1551.27 1101.93 C 1551.26 1101.92 1551.25 1101.92 1551.24 1101.91 C 1551.25 1101.92 1551.26 1101.92 1551.27 1101.93 Z  M 1551.21 1101.87 C 1551.2 1101.87 1551.2 1101.86 1551.19 1101.86 C 1551.2 1101.86 1551.2 1101.87 1551.21 1101.87 Z  M 1551.15 1101.81 C 1551.15 1101.81 1551.15 1101.81 1551.14 1101.8 C 1551.15 1101.81 1551.15 1101.81 1551.15 1101.81 Z  M 1551.1 1101.76 C 1551.1 1101.75 1551.1 1101.75 1551.09 1101.75 C 1551.1 1101.75 1551.1 1101.75 1551.1 1101.76 Z  M 1551.04 1101.7 L 1551.04 1101.7 L 1551.04 1101.7 Z " fill="rgb(231,236,248)"/><path d=" M 874.03 1179.58 C 873.32 1179.58 872.59 1179.58 871.87 1179.58 C 871.83 1179.58 871.8 1179.58 871.76 1179.58 C 871.67 1179.58 871.56 1179.58 871.47 1179.58 C 871.37 1179.58 871.27 1179.58 871.17 1179.58 C 871.13 1179.58 871.03 1179.58 870.99 1179.58 C 870.84 1179.58 870.69 1179.58 870.54 1179.58 C 870.5 1179.58 870.47 1179.58 870.42 1179.58 C 870.27 1179.58 870.11 1179.58 869.96 1179.58 C 869.91 1179.58 869.91 1179.58 869.87 1179.58 C 869.72 1179.58 869.58 1179.58 869.44 1179.58 C 869.37 1179.58 869.26 1179.58 869.19 1179.58 C 869.09 1179.58 868.98 1179.58 868.88 1179.58 C 868.81 1179.58 868.74 1179.58 868.67 1179.58 C 868.52 1179.58 868.38 1179.58 868.23 1179.58 C 868.18 1179.58 868.15 1179.58 868.1 1179.58 C 867.74 1179.58 867.37 1179.58 867 1179.58 C 866.98 1179.58 866.98 1179.58 866.95 1179.58 C 865.8 1179.58 864.62 1179.58 863.47 1179.57 C 863.44 1179.57 863.42 1179.57 863.39 1179.57 C 863.03 1179.57 862.66 1179.57 862.29 1179.57 C 862.27 1179.57 862.25 1179.57 862.22 1179.57 C 862.05 1179.57 861.87 1179.57 861.69 1179.57 L 861.66 1179.57 C 765.534 1179.39 674.283 1177.14 591.844 1173.23 C 602.083 1173.05 612.323 1172.98 622.57 1172.98 C 650.366 1172.98 678.172 1173.49 705.82 1173.76 C 740.13 1174.09 774.437 1174.55 808.75 1174.55 C 824.64 1174.55 840.55 1174.45 856.44 1174.2 C 877.14 1173.87 898.43 1174.51 918.49 1169.31 C 933.4 1165.44 946.97 1158.92 960.05 1151.66 C 972.82 1144.57 985.29 1136.96 999.06 1131.43 C 1016.45 1124.45 1034.33 1122.61 1053.25 1122.03 C 1058.64 1121.86 1064.02 1121.79 1069.4 1121.79 C 1109.42 1121.79 1149.3 1125.84 1189.32 1126.11 C 1190.64 1126.12 1191.96 1126.12 1193.27 1126.12 C 1214.39 1126.12 1235.53 1124.94 1256.34 1121.7 C 1275.81 1118.68 1295.68 1114.31 1313.71 1107 C 1334.49 1098.58 1363.13 1080.83 1356.83 1059 C 1463.83 1070.2 1535.03 1085.1 1551.04 1101.7 L 1551.04 1101.7 C 1551.06 1101.72 1551.08 1101.73 1551.09 1101.75 C 1551.1 1101.75 1551.1 1101.75 1551.1 1101.76 C 1551.11 1101.77 1551.13 1101.79 1551.14 1101.8 C 1551.15 1101.81 1551.15 1101.81 1551.15 1101.81 C 1551.17 1101.83 1551.18 1101.84 1551.19 1101.86 C 1551.2 1101.86 1551.2 1101.87 1551.21 1101.87 C 1551.22 1101.89 1551.23 1101.9 1551.24 1101.91 C 1551.25 1101.92 1551.26 1101.92 1551.27 1101.93 C 1551.27 1101.94 1551.28 1101.95 1551.29 1101.96 C 1551.3 1101.97 1551.31 1101.98 1551.32 1101.99 C 1551.33 1102 1551.33 1102.01 1551.34 1102.01 C 1551.35 1102.02 1551.36 1102.04 1551.38 1102.05 C 1551.38 1102.06 1551.38 1102.06 1551.39 1102.06 C 1551.4 1102.08 1551.41 1102.09 1551.43 1102.11 C 1551.43 1102.11 1551.43 1102.11 1551.43 1102.12 C 1552.06 1102.81 1552.59 1103.5 1553.02 1104.19 L 1553.02 1104.19 C 1553.98 1105.73 1554.47 1107.28 1554.47 1108.84 C 1554.47 1115.66 1545.19 1122.26 1527.87 1128.5 C 1449.84 1156.6 1208.64 1177.52 917.84 1179.44 C 903.35 1179.53 888.76 1179.58 874.03 1179.58 Z " fill="rgb(212,220,237)"/><path d=" M 591.063 983.38 C 591.063 983.38 664.88 984.23 697.437 989.84 C 729.994 995.46 766.293 1047.1 766.293 1047.1 L 737.103 1047.1 L 708.665 1030.26 C 708.665 1030.26 713.154 1045.98 697.437 1045.98 C 681.72 1045.98 645.241 1060.47 603.98 1038.63 C 562.721 1016.79 591.063 983.38 591.063 983.38 Z " fill="rgb(254,148,124)"/><path d=" M 354.9 822.1 C 354.9 822.1 384.946 764.13 394.522 710.58 C 361.056 699.3 339.164 692.35 309.554 673.34 C 277.061 749.02 226.941 840.17 270.376 901.31 C 309.888 956.93 603.981 1038.63 603.981 1038.63 L 625.82 984.27 L 354.9 822.1 Z " fill="rgb(254,148,124)"/><path d=" M 253.453 766.5 C 290.329 620.67 445.442 455.32 451.305 464.961 C 521.244 579.949 429.387 748.55 382.019 807.8 C 380.254 806.8 267.228 772.11 253.453 766.5 Z " fill="rgb(15,71,183)"/><path d=" M 539.199 1076.83 L 790.771 1076.83 C 791.228 1076.83 791.6 1076.46 791.6 1076 L 791.6 1043.61 C 791.6 1043.15 791.229 1042.78 790.771 1042.78 L 539.199 1042.78 C 538.741 1042.78 538.37 1043.15 538.37 1043.61 L 538.37 1076 C 538.37 1076.46 538.741 1076.83 539.199 1076.83 Z " fill="rgb(192,198,221)"/><path d=" M 795.966 1026.19 L 1217.72 1026.19 C 1232.19 1026.19 1243.92 1037.92 1243.92 1052.38 C 1243.92 1066.85 1232.19 1078.58 1217.72 1078.58 L 795.966 1078.58 C 781.498 1078.58 769.768 1066.85 769.768 1052.38 C 769.768 1037.92 781.498 1026.19 795.966 1026.19 Z " fill="rgb(192,198,221)"/><path d=" M 788.444 1052 L 1199.72 1052 C 1212.93 1052 1226.31 1041.29 1229.61 1028.08 L 1295.76 763.46 C 1299.07 750.26 1291.04 739.55 1277.83 739.55 L 866.56 739.55 C 853.35 739.55 839.97 750.26 836.67 763.46 L 770.509 1028.08 C 767.21 1041.29 775.238 1052 788.444 1052 Z " fill="rgb(192,198,221)"/><path d=" M 808.77 1045.62 L 1220.05 1045.62 C 1233.25 1045.62 1246.63 1034.91 1249.94 1021.71 L 1316.09 757.09 C 1319.39 743.88 1311.36 733.18 1298.15 733.18 L 886.88 733.18 C 873.67 733.18 860.29 743.88 856.99 757.09 L 790.835 1021.71 C 787.533 1034.91 795.563 1045.62 808.77 1045.62 Z " fill="rgb(214,217,234)"/><path d=" M 1204.03 130.791 C 1174.12 132.173 1130.13 137.787 1084.27 134.356 C 1029.77 130.3 926.28 126.824 872.88 130.791 C 840.75 133.153 814.46 151.782 814.46 177.721 L 814.46 290.479 L 756.919 336.651 L 814.46 336.651 L 814.46 339.458 C 814.46 365.397 840.93 382.912 872.88 386.433 C 882.47 387.504 892.14 388.172 902.52 388.529 C 912.6 388.84 1009.75 385.453 1027.09 384.517 C 1071.17 382.11 1159.77 386.122 1204.03 386.433 C 1236.25 386.656 1262.41 365.397 1262.41 339.458 L 1262.41 177.721 C 1262.41 151.782 1236.2 129.23 1204.03 130.791 Z " fill="rgb(214,217,234)"/><path d=" M 1246.03 161.56 C 1246.03 177.647 1242.42 192.879 1235.91 206.509 C 1219.07 242.037 1182.89 266.641 1140.9 266.641 C 1098.95 266.641 1062.72 242.037 1045.89 206.46 C 1039.42 192.829 1035.82 177.647 1035.82 161.56 C 1035.82 103.484 1082.87 56.43 1140.9 56.43 C 1198.97 56.43 1246.03 103.484 1246.03 161.56 Z " fill="rgb(192,198,221)"/><path d=" M 1175.55 116.367 C 1175.55 135.5 1160.04 151.01 1140.91 151.01 C 1121.78 151.01 1106.27 135.5 1106.27 116.367 C 1106.27 97.235 1121.78 81.725 1140.91 81.725 C 1160.04 81.725 1175.55 97.235 1175.55 116.367 Z " fill="rgb(255,255,255)"/><path d=" M 1225.4 201.535 C 1210.43 233.134 1178.25 255.017 1140.9 255.017 C 1103.6 255.017 1071.37 233.134 1056.4 201.492 C 1072.62 171.452 1104.35 150.996 1140.9 150.996 C 1177.49 150.996 1209.27 171.452 1225.4 201.535 Z " fill="rgb(255,255,255)"/><path d=" M 1006.96 257.572 L 868.22 257.572 L 868.22 233.662 L 1006.96 233.662 L 1006.96 257.572 Z " fill="rgb(192,198,221)"/><path d=" M 939.78 301.858 L 868.22 301.858 L 868.22 280.11 L 939.78 280.11 L 939.78 301.858 Z " fill="rgb(192,198,221)"/><path d=" M 1214.53 301.858 L 1142.98 301.858 L 1142.98 280.11 L 1214.53 280.11 L 1214.53 301.858 Z " fill="rgb(192,198,221)"/><path d=" M 1130.71 301.858 L 996.04 301.858 L 996.04 280.11 L 1130.71 280.11 L 1130.71 301.858 Z " fill="rgb(192,198,221)"/><path d=" M 985.66 301.858 L 949.89 301.858 L 949.89 280.11 L 985.66 280.11 L 985.66 301.858 Z " fill="rgb(192,198,221)"/><path d=" M 939.78 343.714 L 868.22 343.714 L 868.22 321.967 L 939.78 321.967 L 939.78 343.714 Z " fill="rgb(192,198,221)"/><path d=" M 1137.75 343.714 L 1076.23 343.714 L 1076.23 321.967 L 1137.75 321.967 L 1137.75 343.714 Z " fill="rgb(192,198,221)"/><path d=" M 1065.68 343.714 L 949.89 343.714 L 949.89 321.967 L 1065.68 321.967 L 1065.68 343.714 Z " fill="rgb(192,198,221)"/><path d=" M 1121.02 1303.92 C 982.51 1287.07 836.67 1312.63 738.648 1303.41 C 640.63 1294.19 444.631 1317.66 352.052 1299.86 C 259.474 1282.06 136.82 1295.45 128.672 1317.33 C 114.97 1354.12 228.315 1334.61 326.24 1345.55 C 424.165 1356.49 688.258 1345.29 781.267 1345.55 C 874.28 1345.81 1115.99 1342.44 1252.83 1350.36 C 1389.67 1358.27 1563.23 1355.71 1568.38 1322.86 C 1577.28 1266.14 1259.52 1320.76 1121.02 1303.92 Z " fill="rgb(234,238,244)"/></g></g></svg>