<svg xmlns="http://www.w3.org/2000/svg" xmlns:xlink="http://www.w3.org/1999/xlink" viewBox="0 0 526.748 292.708"><defs><style>.cls-1,.cls-3{fill:#fff;}.cls-2{fill:url(#radial-gradient);}.cls-13,.cls-3,.cls-4,.cls-6,.cls-8{stroke:#333;stroke-width:0.5px;}.cls-10,.cls-12,.cls-13,.cls-19,.cls-3,.cls-4,.cls-5,.cls-6,.cls-8{stroke-miterlimit:10;}.cls-15,.cls-4{fill:#f3f7fb;}.cls-10,.cls-12,.cls-14,.cls-19,.cls-5{fill:none;}.cls-10,.cls-14,.cls-19,.cls-5{stroke:#1f161e;stroke-linecap:round;}.cls-5{stroke-width:0.55px;}.cls-6{fill:#999;}.cls-7{fill:#1f161e;}.cls-8{fill:#006ac6;}.cls-9{fill:#bcbcbc;}.cls-10{stroke-width:0.69px;}.cls-11{fill:#fdfdfe;}.cls-12{stroke:#fff;stroke-width:2px;}.cls-13{fill:#ff9e1b;}.cls-14{stroke-linejoin:round;}.cls-16{fill:#f5f9fc;}.cls-17{fill:#f0f5fa;}.cls-18{fill:#feffff;}.cls-20{fill:#333;}</style><radialGradient id="radial-gradient" cx="246.075" cy="145.797" fx="299.57917761261405" fy="160.91773510973218" r="172.969" gradientTransform="translate(0 30.302) scale(1 0.792)" gradientUnits="userSpaceOnUse"><stop offset="0.003" stop-color="#fff"/><stop offset="0.218" stop-color="#fff" stop-opacity="0.763"/><stop offset="0.605" stop-color="#fff" stop-opacity="0.356"/><stop offset="0.874" stop-color="#fff" stop-opacity="0.1"/><stop offset="1" stop-color="#fff" stop-opacity="0"/></radialGradient></defs><g id="Layer_2" data-name="Layer 2"><g id="Layer_1-2" data-name="Layer 1"><path class="cls-1" d="M334.571,96.679H298.345a2.01,2.01,0,0,0-2.009,1.568V115.5c0,1.436.826,2.443,2.009,2.443h36.226c1.183,0,2.009-1.007,2.009-2.443V98.247A2.011,2.011,0,0,0,334.571,96.679Zm-7.577,3.724h3.231c1.888,0,2.517,1.374,2.516,2.755,0,1.9-1.169,2.762-2.915,2.762h-.983v3.652h-1.849Zm-6.636,0h3.231c1.886,0,2.516,1.374,2.516,2.755,0,1.9-1.169,2.762-2.915,2.762h-.983v3.652h-1.849Zm-7,6.306h1.854v.27c0,.86.243,1.413,1.219,1.413h0a1.055,1.055,0,0,0,1.1-1.007.855.855,0,0,0,0-.124c0-.824-.41-1.156-1.643-1.566-1.644-.553-2.4-1.258-2.4-2.773,0-1.8,1.079-2.7,2.839-2.7,1.643,0,2.837.707,2.837,2.465v.257h-1.774c0-.873-.282-1.361-1-1.361a.94.94,0,0,0-1.053,1.066c0,.565.166.925.95,1.246l1.427.617c1.383.615,1.746,1.3,1.741,2.429,0,1.937-1.182,2.81-3.185,2.81-2.092,0-2.913-.973-2.913-2.67Zm-3.2-7.868h.208v12.126h-.208Zm-2.22,10.073,0,0a.607.607,0,0,1-.86,0l0,0a.612.612,0,1,1,.866,0Zm-1.686-1.057h.668l-.952.962L307,110.294h-.673L305.6,109.2l-.308.31v.785h-.536v-2.437h.536v1.01Zm-.613-4.119a5.043,5.043,0,0,0-.195-1.018.872.872,0,0,0,.162-.261.791.791,0,0,0,.053-.2,2.894,2.894,0,0,1,.674.967,2.47,2.47,0,0,1,.158,1.035v.115c0,.25-.058.408-.172.468a.575.575,0,0,1-.272.072.734.734,0,0,1-.141-.016.531.531,0,0,1-.26-.133.975.975,0,0,1-.1-.106A2.66,2.66,0,0,0,305.63,103.738Zm-.022-2.364a.9.9,0,0,0,.059-.33,3.411,3.411,0,0,1,1.28.9,3.186,3.186,0,0,1,.75,2.09c-.033.655-.123.8-.509.8a.625.625,0,0,1-.456-.281,3.189,3.189,0,0,0-.083-1.155,2.894,2.894,0,0,0-.6-1.074,4.254,4.254,0,0,0-.422-.422.588.588,0,0,0-.115-.2.639.639,0,0,0-.087-.077A.9.9,0,0,0,305.608,101.374Zm.057,3.734a.875.875,0,0,0,.335.067,3.443,3.443,0,0,1-.9,1.28,3.238,3.238,0,0,1-1.975.753h-.116c-.653-.032-.793-.121-.793-.5a.639.639,0,0,1,.272-.463,3.806,3.806,0,0,0,.385.008,2.542,2.542,0,0,0,.771-.1,2.9,2.9,0,0,0,1.076-.6,4.726,4.726,0,0,0,.422-.422.639.639,0,0,0,.2-.115.817.817,0,0,0,.078-.088A.848.848,0,0,0,305.665,105.108Zm-1.026,5.186h-.562l-.184-.542h-.907l-.188.542h-.542l.922-2.437h.549Zm-2.726-1.064a.455.455,0,0,1,.106.14.631.631,0,0,1,.06.169,1.253,1.253,0,0,1,.025.184v.14a.715.715,0,0,0,.012.16.917.917,0,0,0,.028.155.344.344,0,0,0,.056.125h-.526a.965.965,0,0,1-.054-.281,2.266,2.266,0,0,0-.03-.306.49.49,0,0,0-.116-.281.4.4,0,0,0-.291-.089h-.54v.953h-.536v-2.442h1.315a.806.806,0,0,1,.295.053.68.68,0,0,1,.224.141.634.634,0,0,1,.141.213.692.692,0,0,1,.049.262.732.732,0,0,1-.087.375.575.575,0,0,1-.295.239v.007A.411.411,0,0,1,301.913,109.23Zm.283-3.414a.561.561,0,0,1-.057-.407.513.513,0,0,1,.132-.26.884.884,0,0,1,.106-.1,2.6,2.6,0,0,0,.713.093h.206a5.115,5.115,0,0,0,1.018-.2.877.877,0,0,0,.268.159.752.752,0,0,0,.2.042,2.852,2.852,0,0,1-.965.674,2.445,2.445,0,0,1-.866.162h-.286C302.412,105.986,302.256,105.928,302.2,105.816Zm1-2.593c0,.114.014.307.014.395-.4.015-.557.015-.616.015a.873.873,0,0,0-.281.056,5.148,5.148,0,0,1-.165-.938,2.116,2.116,0,0,1,.14-.925s.069-.162.35-.162l.086,0a.477.477,0,0,1,.452.5v.037C303.192,102.756,303.192,103.109,303.192,103.223Zm1.147.1c0-.114-.015-.273-.015-.395.4-.008.556-.013.612-.015a.843.843,0,0,0,.281-.057,5.014,5.014,0,0,1,.166.933,2.11,2.11,0,0,1-.14.924c0,.007-.069.165-.35.165h-.085a.478.478,0,0,1-.452-.5v-.147C304.351,103.988,304.339,103.476,304.339,103.327Zm1.043-1.1a.478.478,0,0,1-.5.451h-.036c-.55.018-.9.018-1.019.018-.088,0-.217.006-.395.015,0-.136-.016-.494-.016-.615a.822.822,0,0,0-.056-.281,5.223,5.223,0,0,1,.937-.164h.131a2,2,0,0,1,.8.14S305.418,101.874,305.382,102.227Zm-1.671,1.624c.086,0,.219-.006.395-.016.007.325.013.531.017.614a.873.873,0,0,0,.056.281,5.124,5.124,0,0,1-.937.166,2.138,2.138,0,0,1-.926-.141s-.195-.084-.158-.434a.477.477,0,0,1,.5-.452h.052C303.273,103.851,303.6,103.851,303.711,103.851Zm1.689-2.71a.517.517,0,0,1-.132.261,1.208,1.208,0,0,1-.106.1,2.566,2.566,0,0,0-.719-.1h-.2a5.049,5.049,0,0,0-1.02.2.9.9,0,0,0-.267-.157.823.823,0,0,0-.194-.054,2.885,2.885,0,0,1,.965-.661,2.448,2.448,0,0,1,.867-.16h.285c.251,0,.409.057.468.171A.562.562,0,0,1,305.4,101.141Zm-2.966-1.048a3.216,3.216,0,0,1,1.967-.753h.125c.653.032.794.121.794.5a.629.629,0,0,1-.273.463,3.882,3.882,0,0,0-.389-.019,2.542,2.542,0,0,0-.771.1,2.9,2.9,0,0,0-1.076.6,5.017,5.017,0,0,0-.422.422.612.612,0,0,0-.2.116,1.049,1.049,0,0,0-.077.086.727.727,0,0,0-.579-.251A3.376,3.376,0,0,1,302.434,100.093Zm-1.379,2.193v-.115c0-.25.058-.408.171-.468a.571.571,0,0,1,.27-.072.585.585,0,0,1,.138.016.5.5,0,0,1,.261.132,1.2,1.2,0,0,1,.1.105,2.685,2.685,0,0,0-.09.923,5.043,5.043,0,0,0,.195,1.018.906.906,0,0,0-.156.269.764.764,0,0,0-.053.194,2.928,2.928,0,0,1-.675-.965A2.5,2.5,0,0,1,301.055,102.286Zm-.719-.558.011-.007a.628.628,0,0,1,.456.273,3.286,3.286,0,0,0,.082,1.16,2.909,2.909,0,0,0,.605,1.075,5.217,5.217,0,0,0,.422.421.569.569,0,0,0,.2.281.849.849,0,0,0-.187.246.907.907,0,0,0-.066.333,3.411,3.411,0,0,1-1.28-.9,3.171,3.171,0,0,1-.75-2.09C299.865,101.869,299.955,101.728,300.336,101.728Zm35.8,13.775c0,1.2-.631,2.009-1.568,2.009H298.345c-.938,0-1.568-.808-1.568-2.009V112.6h39.362Z"/><path class="cls-1" d="M301.231,108.274h-.588v.686h.588a.408.408,0,0,0,.28-.082.341.341,0,0,0,.092-.267.329.329,0,0,0-.092-.257A.424.424,0,0,0,301.231,108.274Z"/><path class="cls-1" d="M307.125,108.107v.006a.5.5,0,0,0-.153.366.511.511,0,0,0,.152.374.526.526,0,1,0,0-.749Zm.118.039h.24a.571.571,0,0,1,.184.024.168.168,0,0,1,.1.169.14.14,0,0,1-.066.132.25.25,0,0,1-.1.034.156.156,0,0,1,.115.064.2.2,0,0,1,.037.1v.1a.1.1,0,0,0,0,.034v.008h-.111v-.083a.165.165,0,0,0-.063-.153.294.294,0,0,0-.131-.021h-.094v.259h-.118Z"/><path class="cls-1" d="M329.663,104.546c.732,0,1.231-.431,1.233-1.368,0-.913-.359-1.413-1.284-1.413h-.774v2.787h.825Z"/><polygon class="cls-1" points="303.758 109.352 303.45 108.458 303.133 109.352 303.758 109.352"/><path class="cls-1" d="M307.59,108.456a.105.105,0,0,0,.069-.106.1.1,0,0,0-.048-.1.3.3,0,0,0-.14-.024h-.1v.242h.107A.337.337,0,0,0,307.59,108.456Z"/><path class="cls-1" d="M324.259,103.178c0-.913-.36-1.413-1.284-1.413H322.2v2.781h.825C323.757,104.546,324.257,104.115,324.259,103.178Z"/><path class="cls-1" d="M301.368,116.105c.472,0,.753-.207.753-.665a.55.55,0,0,0-.413-.575l-.337-.14c-.185-.076-.225-.154-.225-.295a.291.291,0,0,1,0-.059.223.223,0,0,1,.25-.192c.17,0,.236.115.236.321h.422v-.06c0-.416-.283-.583-.672-.583a.593.593,0,0,0-.671.638c0,.358.173.525.562.656.292.1.389.175.389.371a.262.262,0,0,1,0,.028.249.249,0,0,1-.261.238c-.231,0-.288-.13-.288-.334v-.063l-.435-.006v.087C300.678,115.874,300.9,116.105,301.368,116.105Z"/><path class="cls-1" d="M303,116.11c.476,0,.643-.289.643-.86s-.14-.871-.642-.859c-.482,0-.645.281-.645.859S302.5,116.12,303,116.11Zm0-1.433c.17,0,.225.163.225.573s-.055.575-.225.575c-.2,0-.225-.24-.225-.575S302.793,114.677,303,114.677Z"/><rect class="cls-1" x="303.946" y="113.899" width="0.421" height="2.166"/><path class="cls-1" d="M305.13,116.11a.448.448,0,0,0,.422-.233v.188h.4v-1.634h-.421v1.083c0,.18-.074.272-.222.272-.124,0-.179-.061-.179-.228v-1.124h-.421v1.211C304.709,115.97,304.866,116.11,305.13,116.11Z"/><path class="cls-1" d="M306.4,115.652c0,.327.061.431.389.431a2.74,2.74,0,0,0,.274-.018v-.288h-.094c-.123,0-.149-.048-.149-.178v-.884h.244v-.281h-.243v-.468H306.4v.47h-.212v.281h.212Z"/><rect class="cls-1" x="307.308" y="113.875" width="0.421" height="0.364"/><rect class="cls-1" x="307.308" y="114.437" width="0.421" height="1.628"/><path class="cls-1" d="M308.673,116.11c.476,0,.643-.289.643-.86s-.141-.868-.643-.859c-.476,0-.643.281-.643.859S308.171,116.12,308.673,116.11Zm0-1.433c.17,0,.225.163.225.573s-.055.575-.225.575c-.207,0-.225-.24-.225-.575S308.466,114.677,308.673,114.677Z"/><path class="cls-1" d="M310.031,116.065v-1.082c0-.179.072-.271.221-.271.125,0,.18.062.18.229v1.124h.421v-1.209c0-.325-.157-.465-.421-.465a.445.445,0,0,0-.422.234v-.191h-.4v1.631Z"/><path class="cls-1" d="M312.3,115.2h.234a.609.609,0,0,0,.689-.654.574.574,0,0,0-.595-.65h-.763l0,2.166h.438Zm0-.979h.181c.219,0,.305.112.305.334s-.119.324-.292.324h-.194Z"/><path class="cls-1" d="M314.088,115.075l-.237.064c-.288.079-.413.2-.413.51,0,.22.1.468.4.468a.4.4,0,0,0,.421-.212.712.712,0,0,0,.052.17h.4a.725.725,0,0,1-.05-.316v-.86c0-.3-.094-.5-.593-.5-.316,0-.573.128-.573.5v.039h.376V114.9c0-.13.051-.212.194-.212a.177.177,0,0,1,.194.2C314.254,114.993,314.212,115.043,314.088,115.075Zm.166.5v.019a.246.246,0,0,1-.257.234c-.112,0-.159-.1-.159-.228,0-.146.068-.229.238-.264a.447.447,0,0,0,.178-.083Z"/><path class="cls-1" d="M315.433,115.094a.2.2,0,0,1,0-.042.281.281,0,0,1,.308-.251h.132v-.41a.5.5,0,0,0-.077,0,.421.421,0,0,0-.377.261v-.218h-.4l-.009,1.644h.422Z"/><path class="cls-1" d="M316.238,115.652c0,.327.061.431.389.431a2.74,2.74,0,0,0,.274-.018v-.288a.737.737,0,0,1-.094,0c-.123,0-.149-.048-.149-.178v-.884h.243v-.281h-.243v-.468h-.422l0,.47h-.212v.281h.212Z"/><path class="cls-1" d="M317.536,114.983c0-.179.074-.271.222-.271.125,0,.179.062.179.229v1.124h.422v-1.209c0-.325-.157-.465-.422-.465a.443.443,0,0,0-.421.234v-.191h-.4v1.631h.422Z"/><path class="cls-1" d="M319.278,116.11c.4,0,.577-.212.592-.593h-.377c-.024.207-.067.308-.221.308s-.207-.185-.207-.379v-.131h.829v-.094c0-.5-.109-.83-.6-.83-.565,0-.651.406-.651.843C318.645,115.642,318.671,116.11,319.278,116.11ZM319.06,115c0-.155.042-.325.215-.325s.2.139.212.388h-.427Z"/><path class="cls-1" d="M320.6,115.094a.2.2,0,0,1,0-.042.28.28,0,0,1,.308-.251h.13v-.41a.482.482,0,0,0-.076,0,.419.419,0,0,0-.376.261v-.218h-.4l-.007,1.644h.422Z"/><path class="cls-1" d="M321.831,116.11c.353,0,.609-.17.609-.513a.436.436,0,0,0-.363-.467l-.251-.086c-.143-.051-.183-.11-.183-.191v-.021a.178.178,0,0,1,.2-.155c.137,0,.186.079.186.246h.376v-.067c0-.295-.182-.465-.562-.465-.428,0-.6.224-.6.493a.453.453,0,0,0,.348.455l.295.107c.082.032.152.078.152.184,0,.13-.081.2-.212.2a.179.179,0,0,1-.04,0,.208.208,0,0,1-.179-.235v-.055h-.374v.057C321.23,115.906,321.358,116.11,321.831,116.11Z"/><path class="cls-1" d="M323.823,115.2h.235a.609.609,0,0,0,.688-.654.574.574,0,0,0-.595-.65h-.763v2.166h.436Zm0-.979h.182c.218,0,.3.112.3.334s-.12.324-.291.324h-.195Z"/><path class="cls-1" d="M325.433,115.094c0-.014,0-.029,0-.044a.281.281,0,0,1,.31-.249h.13v-.41a.482.482,0,0,0-.076,0,.419.419,0,0,0-.376.261h-.007v-.218h-.4l-.007,1.644h.421Z"/><path class="cls-1" d="M326.7,116.11c.478,0,.644-.289.644-.86s-.142-.868-.644-.859c-.476,0-.643.281-.643.859S326.2,116.12,326.7,116.11Zm0-1.433c.17,0,.225.163.225.573s-.055.575-.225.575c-.206,0-.224-.24-.224-.575S326.494,114.677,326.7,114.677Z"/><path class="cls-1" d="M328.1,116.044a.433.433,0,0,0,.348-.2v.217c0,.17-.06.293-.231.293a.251.251,0,0,1-.141-.045.144.144,0,0,1-.063-.125h-.4c0,.28.207.438.562.438.489,0,.68-.207.68-.642v-1.545l-.4,0v.181a.362.362,0,0,0-.335-.225c-.454,0-.515.45-.515.833C327.6,115.814,327.769,116.044,328.1,116.044Zm.132-1.332c.167,0,.219.149.219.548,0,.276-.049.468-.227.468s-.208-.2-.21-.426C328.015,114.861,328.066,114.712,328.233,114.712Z"/><path class="cls-1" d="M329.629,115.082v-.021a.281.281,0,0,1,.3-.26h.132v-.41a.5.5,0,0,0-.077,0,.421.421,0,0,0-.377.261v-.218h-.4v1.631h.421Z"/><path class="cls-1" d="M330.9,115.075l-.237.064c-.288.079-.412.2-.412.51,0,.22.1.468.393.468a.4.4,0,0,0,.422-.212.632.632,0,0,0,.052.17h.4a.712.712,0,0,1-.052-.316v-.86c0-.3-.094-.5-.591-.5-.316,0-.575.128-.575.5v.039h.378V114.9c0-.13.053-.212.195-.212a.178.178,0,0,1,.194.2C331.062,114.993,331.02,115.043,330.9,115.075Zm.166.5v.02a.246.246,0,0,1-.259.233c-.112,0-.157-.1-.157-.228,0-.146.066-.229.236-.264a.455.455,0,0,0,.18-.083Z"/><path class="cls-1" d="M332.22,114.991c0-.193.1-.281.217-.281s.165.073.165.213v1.142h.421v-1.074c0-.193.1-.281.219-.281s.165.073.165.213v1.142h.421V114.88c0-.315-.125-.489-.406-.489a.408.408,0,0,0-.414.261.354.354,0,0,0-.377-.261.462.462,0,0,0-.413.21v-.167h-.4l-.019,1.631h.422Z"/><rect class="cls-1" x="26.874" y="150.172" width="0.248" height="14.633"/><path class="cls-1" d="M30.4,155.341l-1.175,4.441h.933l.205-.939h1.182l.205.939h.933l-1.175-4.441Zm.119,2.768.429-2h.012l.429,2Z"/><polygon class="cls-1" points="33.054 159.782 33.95 159.782 33.95 157.854 35.443 157.854 35.443 157.12 33.95 157.12 33.95 156.075 35.536 156.075 35.536 155.341 33.054 155.341 33.054 159.782"/><polygon class="cls-1" points="35.95 159.782 36.845 159.782 36.845 157.854 38.338 157.854 38.338 157.12 36.845 157.12 36.845 156.075 38.431 156.075 38.431 155.341 35.95 155.341 35.95 159.782"/><rect class="cls-1" x="38.867" y="155.341" width="0.896" height="4.441"/><polygon class="cls-1" points="41.289 155.341 40.394 155.341 40.394 159.782 42.876 159.782 42.876 159.048 41.289 159.048 41.289 155.341"/><rect class="cls-1" x="43.311" y="155.341" width="0.896" height="4.441"/><path class="cls-1" d="M45.768,155.341l-1.175,4.441h.933l.2-.939h1.182l.205.939h.933l-1.175-4.441Zm.119,2.768.429-2h.012l.429,2Z"/><polygon class="cls-1" points="47.818 156.075 48.788 156.075 48.788 159.782 49.684 159.782 49.684 156.075 50.654 156.075 50.654 155.341 47.818 155.341 47.818 156.075"/><polygon class="cls-1" points="51.957 157.854 53.45 157.854 53.45 157.12 51.957 157.12 51.957 156.075 53.543 156.075 53.543 155.341 51.062 155.341 51.062 159.782 53.605 159.782 53.605 159.048 51.957 159.048 51.957 157.854"/><path class="cls-1" d="M54.657,147.9H13.94a2.261,2.261,0,0,0-2.258,2.258V165.1a2.26,2.26,0,0,0,2.258,2.257H54.657a2.26,2.26,0,0,0,2.258-2.257V150.153A2.261,2.261,0,0,0,54.657,147.9Zm1.763,17.2a1.765,1.765,0,0,1-1.763,1.762H13.94a1.765,1.765,0,0,1-1.763-1.762V150.153a1.764,1.764,0,0,1,1.763-1.762H54.657a1.764,1.764,0,0,1,1.763,1.762Z"/><path class="cls-1" d="M17.7,164.075c-.008-.07-.013-.138-.016-.2s0-.124-.008-.174a1.924,1.924,0,0,0-.033-.235.783.783,0,0,0-.076-.215.6.6,0,0,0-.135-.17.536.536,0,0,0-.209-.106v-.009a.725.725,0,0,0,.377-.3.946.946,0,0,0,.115-.475.872.872,0,0,0-.063-.332.8.8,0,0,0-.183-.272.855.855,0,0,0-.287-.185,1,1,0,0,0-.376-.068H15.13v3.106h.683v-1.213H16.5a.512.512,0,0,1,.37.113.616.616,0,0,1,.147.357c.018.124.031.255.04.391a1.2,1.2,0,0,0,.069.352h.683a.451.451,0,0,1-.072-.158A1.513,1.513,0,0,1,17.7,164.075Zm-.786-1.449a.512.512,0,0,1-.352.1h-.748v-.875h.748a.523.523,0,0,1,.352.1.414.414,0,0,1,.118.329A.43.43,0,0,1,16.913,162.626Z"/><path class="cls-1" d="M19.042,161.325l-1.174,3.106h.687l.244-.691H19.96l.235.691H20.9l-1.161-3.106Zm-.065,1.906.405-1.14h.008l.392,1.14Z"/><polygon class="cls-1" points="23.801 161.325 22.948 161.325 21.735 162.613 21.735 161.325 21.052 161.325 21.052 164.431 21.735 164.431 21.735 163.431 22.126 163.035 23.061 164.431 23.918 164.431 22.587 162.552 23.801 161.325"/><path class="cls-1" d="M19.865,154.746c.149,0,.6-.008,1.3-.024h.045a.607.607,0,0,0,.636-.576c.048-.449-.2-.553-.2-.554a2.523,2.523,0,0,0-1.013-.18c-.054,0-.11,0-.166,0a6.54,6.54,0,0,0-1.2.211,1.037,1.037,0,0,1,.072.354c.006.153.016.611.02.783C19.59,154.752,19.755,154.746,19.865,154.746Z"/><path class="cls-1" d="M21.207,152.024c-.044,0-.093,0-.147,0s-.136-.005-.216-.005a3.144,3.144,0,0,0-1.1.205,3.667,3.667,0,0,0-1.231.859,1.022,1.022,0,0,1,.248.068,1.113,1.113,0,0,1,.34.2,6.291,6.291,0,0,1,1.3-.249c.085-.006.172-.009.26-.009a3.288,3.288,0,0,1,.915.123,1.315,1.315,0,0,0,.135-.123.667.667,0,0,0,.169-.332.724.724,0,0,0-.072-.518C21.727,152.1,21.527,152.024,21.207,152.024Z"/><path class="cls-1" d="M17.69,153.375a.907.907,0,0,1,.1-.111.809.809,0,0,1,.253-.148c.109-.121.32-.349.533-.543a3.693,3.693,0,0,1,1.371-.771,3.287,3.287,0,0,1,.982-.128c.24,0,.433.018.5.024a.809.809,0,0,0,.348-.589c-.007-.487-.187-.6-1.013-.642-.052,0-.105,0-.159,0a4.1,4.1,0,0,0-2.5.96,4.349,4.349,0,0,0-1.144,1.631,1.11,1.11,0,0,1,.425.083A1.077,1.077,0,0,1,17.69,153.375Z"/><path class="cls-1" d="M21.233,157.541c.351,0,.441-.2.444-.208a2.675,2.675,0,0,0,.176-1.179,6.474,6.474,0,0,0-.211-1.195,1.054,1.054,0,0,1-.355.071c-.074,0-.275.009-.783.02.009.156.019.363.019.5,0,.189.014.843.021,1.157l0,.188a.608.608,0,0,0,.576.636A.936.936,0,0,0,21.233,157.541Z"/><path class="cls-1" d="M22.176,157.393a.655.655,0,0,0,.332.169.861.861,0,0,0,.174.02.726.726,0,0,0,.345-.092c.145-.076.218-.277.218-.595,0-.04,0-.084,0-.133v-.016a3.15,3.15,0,0,0-.2-1.319,3.688,3.688,0,0,0-.859-1.231,1.033,1.033,0,0,1-.069.248,1.092,1.092,0,0,1-.2.341,6.463,6.463,0,0,1,.249,1.3,3.417,3.417,0,0,1-.114,1.176A1.22,1.22,0,0,0,22.176,157.393Z"/><path class="cls-1" d="M22.153,153.729c.12.108.348.319.542.533a3.667,3.667,0,0,1,.771,1.37,4.058,4.058,0,0,1,.1,1.479.8.8,0,0,0,.582.347c.493-.007.609-.187.649-1.012a4.054,4.054,0,0,0-.956-2.664,4.346,4.346,0,0,0-1.631-1.144,1.162,1.162,0,0,1-.082.426,1.109,1.109,0,0,1-.239.313.853.853,0,0,1,.111.1A.779.779,0,0,1,22.153,153.729Z"/><path class="cls-1" d="M18.378,156.245a.607.607,0,0,0-.636.576c-.047.446.2.552.2.554a2.713,2.713,0,0,0,1.179.175,6.461,6.461,0,0,0,1.194-.211,1.1,1.1,0,0,1-.071-.355c0-.107-.011-.37-.02-.783-.224.013-.393.019-.5.019-.141,0-.558.008-1.276.024Z"/><path class="cls-1" d="M17.786,158.724c.076.145.276.218.595.218l.127,0h.015c.076,0,.144,0,.222,0a3.152,3.152,0,0,0,1.105-.2,3.693,3.693,0,0,0,1.23-.859,1,1,0,0,1-.248-.068,1.109,1.109,0,0,1-.341-.2,6.385,6.385,0,0,1-1.3.249c-.087.006-.175.009-.261.009a3.329,3.329,0,0,1-.915-.123,1.5,1.5,0,0,0-.135.122.673.673,0,0,0-.168.333A.719.719,0,0,0,17.786,158.724Z"/><path class="cls-1" d="M18.83,160.5c.048,0,.1,0,.146,0a4.14,4.14,0,0,0,2.518-.96,4.349,4.349,0,0,0,1.144-1.631,1.109,1.109,0,0,1-.426-.082,1.126,1.126,0,0,1-.313-.238,1,1,0,0,1-.1.111.788.788,0,0,1-.252.147c-.07.077-.3.33-.534.544a3.663,3.663,0,0,1-1.37.77,3.259,3.259,0,0,1-.983.129c-.238,0-.433-.018-.5-.024a.808.808,0,0,0-.348.589C17.825,160.344,18.005,160.458,18.83,160.5Z"/><path class="cls-1" d="M19.035,154.12v-.046a.609.609,0,0,0-.577-.635,1.009,1.009,0,0,0-.109-.006c-.351,0-.441.2-.445.208a2.693,2.693,0,0,0-.175,1.179,6.6,6.6,0,0,0,.211,1.194,1.052,1.052,0,0,1,.355-.071c.075,0,.271-.009.783-.02-.006-.111-.018-.35-.018-.5S19.051,154.825,19.035,154.12Z"/><path class="cls-1" d="M17.393,156.777a1.009,1.009,0,0,1,.068-.248,1.105,1.105,0,0,1,.2-.341,6.34,6.34,0,0,1-.249-1.3,3.469,3.469,0,0,1,.114-1.176,1.209,1.209,0,0,0-.122-.135.667.667,0,0,0-.332-.169.841.841,0,0,0-.174-.019.717.717,0,0,0-.344.091c-.145.077-.219.278-.219.6,0,.04,0,.087,0,.148a3.156,3.156,0,0,0,.2,1.32A3.7,3.7,0,0,0,17.393,156.777Z"/><path class="cls-1" d="M17.368,158.335a1.149,1.149,0,0,1,.082-.425,1.129,1.129,0,0,1,.239-.314.791.791,0,0,1-.111-.1.782.782,0,0,1-.148-.252c-.1-.088-.34-.31-.543-.534a3.681,3.681,0,0,1-.771-1.37,4.127,4.127,0,0,1-.1-1.478.806.806,0,0,0-.582-.348h-.009c-.486.008-.6.187-.641,1.013a4.058,4.058,0,0,0,.957,2.663A4.354,4.354,0,0,0,17.368,158.335Z"/><path class="cls-1" d="M24.884,162.494c0-.023,0-.044,0-.064v-.062a.237.237,0,0,0-.046-.133.205.205,0,0,0-.147-.083.338.338,0,0,0,.124-.042.187.187,0,0,0,.083-.168.213.213,0,0,0-.132-.217.663.663,0,0,0-.233-.031h-.3v.855h.15v-.336H24.5a.363.363,0,0,1,.167.027.209.209,0,0,1,.081.2v.067l0,.028,0,.009,0,.009H24.9l-.005-.011A.118.118,0,0,1,24.884,162.494Zm-.223-.406a.43.43,0,0,1-.144.019h-.136v-.31h.129a.394.394,0,0,1,.182.032.13.13,0,0,1,.057.125A.132.132,0,0,1,24.661,162.088Z"/><path class="cls-1" d="M24.544,161.348a.775.775,0,0,0-.775.776.757.757,0,0,0,.225.552.776.776,0,0,0,1.1,0,.755.755,0,0,0,.228-.552.777.777,0,0,0-.779-.776Zm.474,1.254a.668.668,0,0,1-.947,0,.678.678,0,0,1,0-.951.666.666,0,0,1,.946,0,.648.648,0,0,1,.2.474A.655.655,0,0,1,25.018,162.6Z"/><path class="cls-2" d="M417.917,291.594a195.511,195.511,0,0,0,24.575-95.178C442.492,87.939,354.553,0,246.075,0S49.659,87.939,49.659,196.416a195.511,195.511,0,0,0,24.575,95.178Z"/><g id="cloud-2"><g id="Layer_2-2" data-name="Layer 2"><g id="Layer_2-2-2" data-name="Layer 2-2"><path class="cls-3" d="M247.919,84.476c0-6.958,23.693-17.845,36.65-17.845,25.559,0,17.581,8.922,33.658,8.922,18.322,0,22.507-39.732,50.386-39.732,30.47,0,25.688,38.864,44.387,38.864,8.053,0,12.088-3.778,23.534-3.778,6.641,0,13.909,6.633,13.909,13.6Z"/></g></g></g><g id="tree-3"><g id="Layer_2-3" data-name="Layer 2"><g id="Layer_2-2-3" data-name="Layer 2-2"><path class="cls-3" d="M335.239,157.471c17.684-6.212,32.753,18.076,36.812,24.531,17.749,28.354,2.768,53.081-5.1,55.918-13.713,4.951-28.6-17.321-32.812-24.374-7.19-11.948-4.955-28.675-5.752-33.773S330.523,159.128,335.239,157.471Z"/><path class="cls-4" d="M380.96,127.362c11.151-1.595,17.612,7.631,19.609,12.9,3.232,8.6,10.2,13.223,10.2,24.213,0,25.649-15.611,46.2-22.622,46.2-15.451,0-21.187-16.25-21.187-23.1,0-11.628,3.075-25.651,2.709-29.151C368.894,151.236,364.587,129.7,380.96,127.362Z"/><path class="cls-5" d="M344.6,176.8c3.886,5.079,23.834,51.892,27.89,104.169"/><path class="cls-5" d="M357.456,175.09c-.422,1.595-3.922,11.18-6.746,14.435"/><path class="cls-5" d="M339.429,205.1c2.683,1.781,10.4,3.517,18.242,3.562"/><path class="cls-5" d="M367.476,216.3a15.406,15.406,0,0,1-6.01,4.84"/><path class="cls-5" d="M385.7,158.7c4.591,30.825-6.354,109.117-6.746,122.271"/><path class="cls-5" d="M396.8,161.3c-1.209,1.857-6.144,6.262-9.893,7.631"/><path class="cls-5" d="M375.231,184.4c2.412,1.111,6.945,3.062,11.311,3.062"/></g></g></g><g id="tree-1"><g id="Layer_2-4" data-name="Layer 2"><g id="Layer_2-2-4" data-name="Layer 2-2"><path class="cls-6" d="M430.227,55.247c18.031,0,24.117,12.224,24.117,20.72,0,17.717-3.836,13.766-3.836,32.076,0,19.68,25.212,44.528,25.212,78.518,0,46.468-40.559,53.28-45.493,53.28-25.575,0-35.076-28.144-35.076-45.218,0-20.229,17.815-41.884,17.815-61.381,0-14.263-4.66-19.8-4.66-41.915C408.306,69.092,421.187,55.247,430.227,55.247Z"/><line class="cls-5" x1="428.88" y1="278.336" x2="428.88" y2="84.506"/><line class="cls-5" x1="428.88" y1="210.307" x2="458.911" y2="179.528"/><line class="cls-5" x1="428.132" y1="123.931" x2="418.458" y2="114.258"/><line class="cls-5" x1="428.88" y1="97.985" x2="442.385" y2="84.484"/></g></g></g><g id="plant-2"><g id="Layer_2-5" data-name="Layer 2"><g id="Layer_2-2-5" data-name="Layer 2-2"><path class="cls-3" d="M511.577,153.13c6.739,0,14.166,10.872,14.649,14.649,1.368,10.653-2.878,17.785-2.637,22.076.544,9.573,4.095,18.133,1.466,23.354-15.511,30.9-68.382,24.063-74.683,34.693-1.617,3.022-6.263,12.557-6.263,12.557-2.456-2.456-8.673-19.281-8.673-25.847s9.111-24.622,26.987-37.5C471.874,190.3,489.236,153.13,511.577,153.13Z"/><path class="cls-5" d="M438.692,277.148c1.972-6.8,21.215-64.975,69.334-91.863"/><path class="cls-5" d="M491.412,196.6c.378-2.833,2.312-8.718,0-17.422"/><path class="cls-5" d="M479.739,207.323c.4-4.593,0-11.121-1.647-14.831"/><path class="cls-5" d="M468.95,219.744a63.842,63.842,0,0,1,24.033,1.246"/></g></g></g><g id="rock-1"><g id="Layer_2-6" data-name="Layer 2"><g id="Layer_2-2-6" data-name="Layer 2-2"><path class="cls-7" d="M313.7,283.913c0-7.079,12.844-31.732,34.754-31.732,21.4,0,26.322,7.843,44.084,7.843,13.267,0,12.361-5.229,24.812-5.229,25.438,0,35.335,20.173,35.335,29.141Z"/></g></g></g><g id="rock-1-2" data-name="rock-1"><g id="Layer_2-7" data-name="Layer 2"><g id="Layer_2-2-7" data-name="Layer 2-2"><path class="cls-6" d="M479.88,285.4c0-3.666-6.651-16.431-18-16.431-11.083,0-13.63,4.061-22.828,4.061-6.87,0-6.4-2.708-12.848-2.708-13.172,0-18.3,10.446-18.3,15.09Z"/></g></g></g><line class="cls-5" x1="0.275" y1="286.702" x2="357.671" y2="286.702"/><line class="cls-5" x1="136.298" y1="292.433" x2="493.694" y2="292.433"/><rect class="cls-6" x="21.487" y="258.637" width="59.234" height="30.037" rx="8.45"/><path class="cls-1" d="M232.77,113.194a.605.605,0,0,0-.141-.415.586.586,0,0,0-.458-.16h-1.112v1.173h.933a1.771,1.771,0,0,0,.3-.023.669.669,0,0,0,.248-.092.508.508,0,0,0,.169-.184A.611.611,0,0,0,232.77,113.194Z"/><path class="cls-1" d="M218.4,113.194a.6.6,0,0,0-.142-.415.582.582,0,0,0-.457-.16h-1.112v1.173h.933a1.779,1.779,0,0,0,.3-.023.657.657,0,0,0,.247-.092.5.5,0,0,0,.17-.184A.622.622,0,0,0,218.4,113.194Z"/><path class="cls-1" d="M210.432,112.619h-.876v1.234h.876a.794.794,0,0,0,.558-.155.592.592,0,0,0,.177-.462.582.582,0,0,0-.177-.459A.824.824,0,0,0,210.432,112.619Z"/><polygon class="cls-1" points="220.392 103.634 219.166 107.086 221.604 107.086 220.418 103.634 220.392 103.634"/><polygon class="cls-1" points="200.784 113.05 200.353 114.265 201.211 114.265 200.794 113.05 200.784 113.05"/><path class="cls-1" d="M197.778,112.8h-.8v.931h.8a.549.549,0,0,0,.375-.111.461.461,0,0,0,.126-.362.437.437,0,0,0-.126-.349A.554.554,0,0,0,197.778,112.8Z"/><polygon class="cls-1" points="213.67 112.647 213.1 114.216 214.24 114.216 213.68 112.647 213.67 112.647"/><path class="cls-1" d="M234.425,99.412H194.647a1.136,1.136,0,0,0-1.135,1.135v16.586H235.56V100.547A1.136,1.136,0,0,0,234.425,99.412Zm-31.3,3.787a.7.7,0,0,1-.178.351,1.366,1.366,0,0,1-.143.13,3.452,3.452,0,0,0-.967-.13c-.093,0-.186,0-.276.009a6.818,6.818,0,0,0-1.373.263,1.187,1.187,0,0,0-.36-.214,1.067,1.067,0,0,0-.262-.072,3.878,3.878,0,0,1,1.3-.908,3.317,3.317,0,0,1,1.167-.217c.085,0,.161,0,.228,0s.11.005.156.005c.338,0,.55.077.63.23A.766.766,0,0,1,203.123,103.2Zm.31,3.513a6.8,6.8,0,0,0-.263-1.372,1.167,1.167,0,0,0,.214-.36,1.108,1.108,0,0,0,.072-.263,3.891,3.891,0,0,1,.909,1.3,3.365,3.365,0,0,1,.211,1.4v.017c0,.051,0,.1,0,.139,0,.337-.078.549-.231.63a.77.77,0,0,1-.364.1.88.88,0,0,1-.184-.021.7.7,0,0,1-.351-.178,1.239,1.239,0,0,1-.129-.143A3.642,3.642,0,0,0,203.433,106.712Zm.047,1.846a1.157,1.157,0,0,0,.45.087,4.583,4.583,0,0,1-1.21,1.725,4.38,4.38,0,0,1-2.661,1.014c-.052,0-.1,0-.155,0-.872-.043-1.062-.164-1.07-.679a.855.855,0,0,1,.368-.623,5.246,5.246,0,0,0,.524.026,3.461,3.461,0,0,0,1.038-.136,3.889,3.889,0,0,0,1.449-.815c.248-.225.491-.493.564-.574a.861.861,0,0,0,.268-.156,1.039,1.039,0,0,0,.1-.118A1.188,1.188,0,0,0,203.48,108.558Zm-1.059-3.286h-.047c-.743.017-1.219.026-1.375.026-.117,0-.291.006-.532.019,0-.183-.014-.666-.021-.828a1.116,1.116,0,0,0-.075-.375,6.994,6.994,0,0,1,1.263-.222c.059,0,.118,0,.176,0a2.686,2.686,0,0,1,1.07.189s.264.112.214.586A.642.642,0,0,1,202.421,105.272Zm.679,1.515a2.824,2.824,0,0,1-.186,1.246c0,.009-.1.22-.47.22a1.065,1.065,0,0,1-.115-.006.645.645,0,0,1-.609-.673l0-.2c-.007-.332-.023-1.023-.023-1.223,0-.148-.01-.367-.019-.532.537-.011.749-.018.828-.021a1.122,1.122,0,0,0,.375-.075A6.923,6.923,0,0,1,203.1,106.787Zm-2.252.07c.116,0,.295-.007.532-.019.009.435.016.714.021.827a1.151,1.151,0,0,0,.075.375,6.725,6.725,0,0,1-1.263.223,2.851,2.851,0,0,1-1.246-.185s-.264-.114-.214-.585a.642.642,0,0,1,.673-.609l.073,0C200.258,106.865,200.7,106.857,200.848,106.857Zm-1.51-.293a1.116,1.116,0,0,0-.375.076,6.986,6.986,0,0,1-.223-1.263,2.845,2.845,0,0,1,.185-1.246c0-.009.1-.221.471-.221a.909.909,0,0,1,.115.007.644.644,0,0,1,.609.672v.048c.017.745.026,1.221.026,1.375s.012.414.019.531C199.625,106.555,199.417,106.561,199.338,106.564Zm-.436,2.041a1.407,1.407,0,0,1,.143-.129,3.519,3.519,0,0,0,.967.13c.09,0,.184,0,.276-.01a6.711,6.711,0,0,0,1.372-.263,1.178,1.178,0,0,0,.36.215,1.087,1.087,0,0,0,.263.072,3.919,3.919,0,0,1-1.3.908,3.353,3.353,0,0,1-1.169.217c-.083,0-.155,0-.234-.006h-.016l-.134,0c-.338,0-.549-.078-.63-.231a.764.764,0,0,1-.076-.547A.7.7,0,0,1,198.9,108.605Zm.225-6.819a4.331,4.331,0,0,1,2.648-1.015c.056,0,.112,0,.168,0,.873.043,1.063.163,1.071.678a.855.855,0,0,1-.369.623c-.066-.006-.27-.026-.524-.026a3.431,3.431,0,0,0-1.038.137,3.864,3.864,0,0,0-1.449.815c-.225.2-.449.446-.564.574a.82.82,0,0,0-.267.156.94.94,0,0,0-.1.117,1.123,1.123,0,0,0-.331-.251,1.149,1.149,0,0,0-.45-.088A4.593,4.593,0,0,1,199.127,101.786Zm-1.863,2.964c0-.064,0-.114,0-.157,0-.336.078-.548.231-.63a.768.768,0,0,1,.364-.1.818.818,0,0,1,.184.021.7.7,0,0,1,.351.177,1.465,1.465,0,0,1,.13.143,3.618,3.618,0,0,0-.121,1.244,6.711,6.711,0,0,0,.263,1.372,1.174,1.174,0,0,0-.214.36,1.113,1.113,0,0,0-.072.262,3.9,3.9,0,0,1-.909-1.3A3.36,3.36,0,0,1,197.264,104.75ZM196.3,104h.009a.854.854,0,0,1,.616.368,4.369,4.369,0,0,0,.109,1.563,3.919,3.919,0,0,0,.815,1.449c.216.237.472.471.575.563a.811.811,0,0,0,.156.268,1.046,1.046,0,0,0,.117.105,1.173,1.173,0,0,0-.252.331,1.2,1.2,0,0,0-.087.449,4.592,4.592,0,0,1-1.724-1.209,4.291,4.291,0,0,1-1.012-2.816C195.666,104.2,195.786,104.005,196.3,104Zm2.076,11.547a1.278,1.278,0,0,1-.074-.375c-.01-.145-.023-.285-.042-.417a.657.657,0,0,0-.158-.381.542.542,0,0,0-.394-.12h-.728v1.293h-.728v-3.31h1.785a1.077,1.077,0,0,1,.4.071.934.934,0,0,1,.306.2.825.825,0,0,1,.195.29.922.922,0,0,1,.067.354,1.006,1.006,0,0,1-.122.506.773.773,0,0,1-.4.324v.009a.563.563,0,0,1,.222.114.619.619,0,0,1,.144.181.835.835,0,0,1,.081.23,1.927,1.927,0,0,1,.035.25c0,.052.006.114.009.185s.009.144.016.218a1.362,1.362,0,0,0,.038.211.461.461,0,0,0,.076.169Zm3.275,0-.25-.738h-1.238l-.26.738h-.732l1.252-3.311h.746l1.238,3.311Zm3.056,0-1-1.489-.418.422v1.067h-.728v-3.311h.728v1.372l1.294-1.372h.909l-1.294,1.307,1.419,2Zm.824-7.379a.839.839,0,0,1-.615-.367,4.3,4.3,0,0,0-.11-1.563,3.891,3.891,0,0,0-.815-1.449c-.206-.226-.446-.449-.574-.564a.83.83,0,0,0-.157-.267.949.949,0,0,0-.117-.105,1.159,1.159,0,0,0,.252-.331,1.211,1.211,0,0,0,.087-.45,4.6,4.6,0,0,1,1.724,1.21,4.289,4.289,0,0,1,1.012,2.816C206.174,107.968,206.052,108.158,205.531,108.166Zm4.689-6.851,2.095,6.614h.026l2.122-6.614H216.6l-3.123,9.407h-2.332l-3.043-9.407Zm1.133,12.656a1.02,1.02,0,0,1-.77.259h-1.027v1.376h-.448v-3.364h1.475a1.041,1.041,0,0,1,.77.262.986.986,0,0,1,.261.732A1,1,0,0,1,211.353,113.971Zm3.4,1.635-.367-1.013h-1.423l-.377,1.013h-.457l1.31-3.364h.5l1.314,3.364Zm3.712,0a.279.279,0,0,1-.063-.141,1.43,1.43,0,0,1-.021-.2c0-.074-.007-.153-.01-.238a1.594,1.594,0,0,0-.028-.25c-.013-.082-.028-.159-.047-.233a.545.545,0,0,0-.09-.193.434.434,0,0,0-.16-.132.594.594,0,0,0-.264-.05h-1.093v1.437h-.447v-3.364h1.582a1.112,1.112,0,0,1,.752.235.812.812,0,0,1,.271.646,1.018,1.018,0,0,1-.139.537.715.715,0,0,1-.445.316v.009a.6.6,0,0,1,.238.095.51.51,0,0,1,.146.158.736.736,0,0,1,.08.2,2.15,2.15,0,0,1,.04.236c.007.082.011.165.014.25a2.055,2.055,0,0,0,.024.25,1.439,1.439,0,0,0,.054.233.575.575,0,0,0,.106.195Zm3.7-2.987h-1.121v2.987H220.6v-2.987h-1.122v-.377h2.691Zm-.021-3.992h-3.518l-.738,2.095h-2.081l3.557-9.407h2.121L225,110.722h-2.148Zm3.621,6.979h-.49l-1.757-2.7h-.01v2.7h-.424v-3.364h.476l1.772,2.728h.009v-2.728h.424Zm3.7,0h-2.337v-3.364h2.323v.377h-1.875v1.07h1.748v.377h-1.748v1.163h1.889Zm3.371,0a.272.272,0,0,1-.064-.141,1.43,1.43,0,0,1-.021-.2c0-.074-.006-.153-.01-.238a1.594,1.594,0,0,0-.028-.25,2.231,2.231,0,0,0-.047-.233.545.545,0,0,0-.09-.193.434.434,0,0,0-.16-.132.592.592,0,0,0-.263-.05h-1.094v1.437h-.447v-3.364H232.2a1.116,1.116,0,0,1,.752.235.815.815,0,0,1,.27.646,1.018,1.018,0,0,1-.139.537.715.715,0,0,1-.445.316v.009a.6.6,0,0,1,.238.095.51.51,0,0,1,.146.158.706.706,0,0,1,.08.2,2.15,2.15,0,0,1,.04.236c.007.082.011.165.014.25a2.055,2.055,0,0,0,.024.25,1.553,1.553,0,0,0,.054.233.575.575,0,0,0,.106.195Zm-1.245-4.884a3.6,3.6,0,0,1-.211-1.067q-.039-.619-.119-1.186a1.863,1.863,0,0,0-.448-1.08,1.537,1.537,0,0,0-1.12-.343h-2.068v3.676h-2.068v-9.407h5.072a3.031,3.031,0,0,1,1.14.2,2.643,2.643,0,0,1,.869.56,2.425,2.425,0,0,1,.554.823,2.648,2.648,0,0,1,.191,1.008,2.831,2.831,0,0,1-.349,1.436,2.193,2.193,0,0,1-1.14.923v.026a1.608,1.608,0,0,1,.632.323,1.8,1.8,0,0,1,.409.514,2.4,2.4,0,0,1,.23.652,5.813,5.813,0,0,1,.1.711c.009.15.018.326.026.528s.025.408.047.619a4.1,4.1,0,0,0,.105.6,1.386,1.386,0,0,0,.217.48Z"/><path class="cls-1" d="M229.891,102.922h-2.266v2.649h2.266a1.571,1.571,0,0,0,1.068-.316,1.314,1.314,0,0,0,.355-1.028,1.254,1.254,0,0,0-.355-1A1.592,1.592,0,0,0,229.891,102.922Z"/><path class="cls-1" d="M234.425,98.486H194.647a2.063,2.063,0,0,0-2.06,2.061v17.684a2.062,2.062,0,0,0,2.06,2.06h39.778a2.062,2.062,0,0,0,2.06-2.06V100.547A2.063,2.063,0,0,0,234.425,98.486Zm-41.343,20.066a1.618,1.618,0,0,1-.032-.321h0a1.586,1.586,0,0,0,.7,1.323A1.605,1.605,0,0,1,193.082,118.552Zm41.343,1.276H194.647a1.583,1.583,0,0,1-.62-.126,1.583,1.583,0,0,0,.62.126h39.778a1.583,1.583,0,0,0,.62-.126A1.583,1.583,0,0,1,234.425,119.828Zm1.6-1.6a1.6,1.6,0,0,1-.706,1.323,1.6,1.6,0,0,0,.706-1.323Zm0-1.1h-.463v1.1a1.136,1.136,0,0,1-1.135,1.134H194.647a1.136,1.136,0,0,1-1.135-1.134v-1.1h-.462V100.546a1.6,1.6,0,0,1,1.6-1.6h39.778a1.6,1.6,0,0,1,1.6,1.6Z"/><polygon class="cls-1" points="106.896 126.541 106.885 126.541 106.524 128.219 107.257 128.219 106.896 126.541"/><path class="cls-1" d="M117.915,132c-.319,0-.382.314-.382.925s.063.926.382.926.377-.314.377-.926S118.229,132,117.915,132Z"/><path class="cls-1" d="M116.879,136.964c0,.106.091.144.19.144.213,0,.3-.131.3-.222v-.166C117.244,136.813,116.879,136.722,116.879,136.964Z"/><path class="cls-1" d="M120.965,136.364c-.17,0-.307.135-.307.373s.137.371.307.371.306-.133.306-.371S121.134,136.364,120.965,136.364Z"/><path class="cls-1" d="M122.044,136.364c-.207,0-.291.17-.291.358s.065.375.278.375.293-.2.293-.381S122.248,136.364,122.044,136.364Z"/><ellipse class="cls-1" cx="116.387" cy="128.219" rx="0.387" ry="0.988"/><path class="cls-1" d="M116.136,136.364a.279.279,0,0,0-.281.278h.565A.284.284,0,0,0,116.136,136.364Z"/><path class="cls-1" d="M124.1,127.231c-.288,0-.371.293-.371.559v.11h.737C124.453,127.471,124.4,127.231,124.1,127.231Z"/><path class="cls-1" d="M112.225,136.364c-.207,0-.291.17-.291.358s.065.375.278.375.293-.2.293-.381S112.429,136.364,112.225,136.364Z"/><polygon class="cls-1" points="113.931 136.033 113.701 136.667 114.162 136.667 113.935 136.033 113.931 136.033"/><path class="cls-1" d="M108.708,136.364c-.169,0-.306.135-.306.373s.137.371.306.371.307-.133.307-.371S108.878,136.364,108.708,136.364Z"/><path class="cls-1" d="M123.129,136.364a.278.278,0,0,0-.281.278h.565A.284.284,0,0,0,123.129,136.364Z"/><path class="cls-1" d="M106.807,131.15h-.319v2.625h.335c.522,0,.627-.33.627-1.344C107.45,131.584,107.377,131.15,106.807,131.15Z"/><path class="cls-1" d="M118.2,136.364c-.22,0-.294.189-.294.381s.095.363.3.363.3-.188.3-.371S118.42,136.364,118.2,136.364Z"/><polygon class="cls-1" points="95.709 135.577 95.399 136.449 96.015 136.449 95.715 135.577 95.709 135.577"/><path class="cls-1" d="M99.514,135.2v.089h.034c.039,0,.071-.014.071-.046s-.02-.047-.066-.047A.152.152,0,0,0,99.514,135.2Z"/><path class="cls-1" d="M125.814,136.364a.28.28,0,0,0-.282.278h.566A.284.284,0,0,0,125.814,136.364Z"/><path class="cls-1" d="M99.561,135.055a.247.247,0,0,0,0,.494.237.237,0,0,0,.236-.245A.239.239,0,0,0,99.561,135.055Zm.074.409a.226.226,0,0,1-.025-.075c-.006-.034-.025-.049-.064-.049h-.034v.124H99.44v-.309a.591.591,0,0,1,.119-.01.2.2,0,0,1,.108.023.086.086,0,0,1,.03.068.081.081,0,0,1-.064.072v0a.091.091,0,0,1,.056.076.231.231,0,0,0,.023.077Z"/><path class="cls-1" d="M126.569,127.294c-.314,0-.377.313-.377.925s.063.926.377.926.381-.314.381-.926S126.888,127.294,126.569,127.294Z"/><path class="cls-1" d="M130.429,122.347h-41.3a1.029,1.029,0,0,0-1.028,1.029v16.211h43.356V123.376A1.03,1.03,0,0,0,130.429,122.347Zm-6.3,4.392c.842,0,1.03.565,1.03,1.428v.162h-1.427v.225c0,.335.089.654.355.654.246,0,.34-.173.382-.529h.648c-.026.654-.329,1.02-1.019,1.02-1.046,0-1.088-.805-1.088-1.506C123.01,127.44,123.156,126.739,124.129,126.739Zm-.785,4.777v.491h-.419v1.522c0,.225.047.309.256.309a1.55,1.55,0,0,0,.163-.011v.5a4.579,4.579,0,0,1-.471.031c-.565,0-.669-.177-.669-.742v-1.611h-.367v-.491h.367v-.806h.721v.806Zm-2.574-2.444,1.124-1.674h-1.072v-.586h1.924v.555l-1.124,1.673h1.124v.586H120.77Zm-1.115-3.222h.721v.617h-.721Zm0,.962h.721v2.814h-.721Zm-3.268-.073c.863-.015,1.109.5,1.109,1.48,0,.962-.288,1.48-1.109,1.48-.863.016-1.109-.5-1.109-1.48C115.278,127.257,115.566,126.739,116.387,126.739Zm-.084,3.814v.618h-.721v-.618Zm-1.011.9v.69c-.078,0-.146-.01-.225-.01a.486.486,0,0,0-.533.507v1.689h-.722v-2.813h.69v.376h.011a.727.727,0,0,1,.648-.45A1.157,1.157,0,0,1,115.292,131.453Zm-2.537-5.561h.722V127.1h.01a.731.731,0,0,1,.685-.361c.455,0,.717.241.717.8v2.087h-.722v-1.94c0-.288-.094-.392-.309-.392-.256,0-.381.156-.381.465v1.867h-.722Zm-1.759.92h.366v-.8h.722v.8h.418v.492h-.418v1.522c0,.225.047.308.256.308a1.547,1.547,0,0,0,.162-.01v.5a4.541,4.541,0,0,1-.47.031c-.565,0-.67-.177-.67-.742V127.3H111Zm-2.408,0h.722v1.941c0,.287.094.392.308.392.256,0,.382-.157.382-.466v-1.867h.721v2.814h-.69v-.33h-.01a.766.766,0,0,1-.717.4c-.455,0-.716-.24-.716-.8Zm.12,4.359v-.618h.722v.618Zm.722.345v2.813h-.722v-2.813Zm-11.9-3.753a.558.558,0,0,1-.14.277,1,1,0,0,1-.117.105,2.679,2.679,0,0,0-.749-.1c-.071,0-.142,0-.211.007a5.138,5.138,0,0,0-1.064.205.849.849,0,0,0-.279-.168.821.821,0,0,0-.225-.058,3.053,3.053,0,0,1,1.027-.722,2.571,2.571,0,0,1,.905-.168c.066,0,.124,0,.177,0l.119,0c.266,0,.433.062.5.185A.6.6,0,0,1,97.529,127.763Zm.213,2.707a5.189,5.189,0,0,0-.2-1.062.965.965,0,0,0,.226-.5,3.077,3.077,0,0,1,.722,1.027,2.6,2.6,0,0,1,.164,1.081v.013c0,.039,0,.075,0,.107,0,.266-.062.433-.185.5a.608.608,0,0,1-.287.076.7.7,0,0,1-.145-.017.55.55,0,0,1-.277-.14,1.143,1.143,0,0,1-.105-.117A2.759,2.759,0,0,0,97.742,130.47Zm.055,1.411a.948.948,0,0,0,.361.067,3.6,3.6,0,0,1-.944,1.352,3.372,3.372,0,0,1-2.061.786q-.06,0-.12,0c-.682-.034-.831-.129-.837-.536a.678.678,0,0,1,.292-.494c.057.006.215.02.408.02a2.657,2.657,0,0,0,.8-.1,2.99,2.99,0,0,0,1.113-.626c.191-.174.377-.378.436-.444a.649.649,0,0,0,.2-.119.75.75,0,0,0,.088-.1A.9.9,0,0,0,97.8,131.881Zm-3.2-1.513a.831.831,0,0,0-.3.064,5.346,5.346,0,0,1-.177-.992,2.189,2.189,0,0,1,.144-.966c0-.007.078-.178.375-.178.03,0,.06,0,.09,0a.508.508,0,0,1,.482.531v.037c.013.575.02.941.02,1.06s.011.329.016.423C94.826,130.361,94.661,130.366,94.6,130.368Zm1.164.2c.126,0,.322-.01.423-.016v0c.007.344.013.562.017.649a.816.816,0,0,0,.062.3,5.313,5.313,0,0,1-.991.177,2.186,2.186,0,0,1-.967-.144c-.008,0-.212-.095-.172-.465a.506.506,0,0,1,.531-.481h.057C95.294,130.575,95.644,130.568,95.762,130.568Zm-1.51,1.353a1.078,1.078,0,0,1,.117-.106,2.658,2.658,0,0,0,.748.1c.072,0,.143,0,.212-.008a5.158,5.158,0,0,0,1.063-.2.861.861,0,0,0,.279.168.821.821,0,0,0,.225.058,3.068,3.068,0,0,1-1.026.722,2.582,2.582,0,0,1-.906.168c-.064,0-.122,0-.181,0l-.115,0c-.265,0-.432-.062-.5-.185a.6.6,0,0,1-.06-.431A.556.556,0,0,1,94.252,131.921Zm3.116-.427s-.075.177-.375.177a.679.679,0,0,1-.09,0,.508.508,0,0,1-.482-.531l0-.116c0-.245-.018-.819-.018-.982,0-.121-.009-.307-.016-.422.44-.009.6-.014.652-.017a.813.813,0,0,0,.3-.063,5.411,5.411,0,0,1,.177.992A2.2,2.2,0,0,1,97.368,131.494Zm-.393-2.122h-.036c-.562.012-.938.019-1.061.019s-.289.009-.423.016c0-.116-.011-.519-.016-.652a.834.834,0,0,0-.063-.3,5.425,5.425,0,0,1,.991-.176l.137,0a2.058,2.058,0,0,1,.83.147c.009,0,.212.093.173.465A.508.508,0,0,1,96.975,129.372Zm-2.548-2.712a3.3,3.3,0,0,1,2.18-.782c.683.034.832.129.838.536a.684.684,0,0,1-.293.494c-.057-.006-.214-.02-.408-.02a2.666,2.666,0,0,0-.8.1,2.986,2.986,0,0,0-1.113.626c-.174.158-.345.344-.436.444a.629.629,0,0,0-.2.119.716.716,0,0,0-.089.1.9.9,0,0,0-.262-.2.945.945,0,0,0-.361-.066A3.6,3.6,0,0,1,94.427,126.66Zm-1.442,2.3c0-.045,0-.084,0-.12,0-.265.063-.433.185-.5a.608.608,0,0,1,.287-.076.7.7,0,0,1,.145.017.543.543,0,0,1,.276.14,1.06,1.06,0,0,1,.106.117,2.785,2.785,0,0,0-.094.961,5.115,5.115,0,0,0,.2,1.062.885.885,0,0,0-.168.279.816.816,0,0,0-.057.226,3.085,3.085,0,0,1-.723-1.027A2.585,2.585,0,0,1,92.985,128.956Zm-.731-.593h.008a.668.668,0,0,1,.488.292,3.327,3.327,0,0,0,.083,1.206,3,3,0,0,0,.626,1.112c.166.183.363.363.445.436a.624.624,0,0,0,.118.205.827.827,0,0,0,.1.088.748.748,0,0,0-.269.623,3.6,3.6,0,0,1-1.352-.944,3.32,3.32,0,0,1-.783-2.18C91.753,128.518,91.848,128.369,92.254,128.363Zm1.726,9a.9.9,0,0,1-.053-.27c-.007-.1-.017-.2-.03-.3a.474.474,0,0,0-.113-.273.388.388,0,0,0-.283-.087h-.523v.929h-.522v-2.377h1.281a.774.774,0,0,1,.288.052.655.655,0,0,1,.219.141.621.621,0,0,1,.14.208.673.673,0,0,1,.049.255.713.713,0,0,1-.089.363.556.556,0,0,1-.288.233v.006a.4.4,0,0,1,.16.082.449.449,0,0,1,.1.13.627.627,0,0,1,.059.164,1.589,1.589,0,0,1,.025.18c0,.038,0,.082.006.133s.006.1.012.157a.9.9,0,0,0,.027.151.359.359,0,0,0,.054.122Zm2.351,0-.18-.529h-.888l-.187.529H94.55l.9-2.377h.536l.888,2.377Zm2.193,0-.716-1.069-.3.3v.766h-.523v-2.377h.523v.985l.928-.985h.653l-.929.939,1.018,1.438Zm1.037-1.753a.312.312,0,1,1,.317-.313A.314.314,0,0,1,99.561,135.615Zm-.188-4.011a.67.67,0,0,1-.488-.293,3.323,3.323,0,0,0-.083-1.205,3,3,0,0,0-.626-1.113c-.166-.182-.363-.362-.444-.435a.63.63,0,0,0-.119-.2.786.786,0,0,0-.1-.089.908.908,0,0,0,.2-.262.938.938,0,0,0,.067-.36,3.6,3.6,0,0,1,1.352.944,3.32,3.32,0,0,1,.783,2.18C99.882,131.449,99.786,131.6,99.373,131.6Zm3.7,5.858h-.244v-11.91h.244Zm3.352-11.57h.931l.988,3.734h-.784l-.173-.79h-.993l-.173.79h-.784Zm1.581,11.336h-.171V136.1h0l-.424,1.13h-.154l-.425-1.13h0v1.13h-.171V135.87h.247l.428,1.141.43-1.141h.247Zm-1.084-2.9h-1.187V130.6h1.234c1.041,0,1.234.711,1.234,1.815C108.2,133.728,107.921,134.329,106.922,134.329Zm1.786,2.922a.516.516,0,1,1,.478-.514A.466.466,0,0,1,108.708,137.251Zm1.114-.023h-.173l-.366-.983h.181l.276.82h0l.268-.82h.17Zm.681,0h-.161v-.983h.161Zm0-1.16h-.161v-.2h.161Zm1.067,1.16h-.162v-.666a.184.184,0,0,0-.2-.2.277.277,0,0,0-.291.309v.555h-.162v-.983h.152v.155h.005a.34.34,0,0,1,.319-.179c.259,0,.339.149.339.36Zm-.716-2.826c-.816,0-1.036-.35-1.036-.894v-.1h.649v.094a.36.36,0,0,0,.376.408c.225,0,.366-.11.366-.335,0-.183-.12-.261-.261-.319l-.507-.183a.779.779,0,0,1-.6-.784c0-.461.3-.848,1.036-.848.653,0,.962.293.962.8v.115h-.649c0-.288-.083-.424-.319-.424a.3.3,0,0,0-.34.3c0,.142.068.251.314.33l.434.146a.755.755,0,0,1,.623.806C111.9,134.109,111.46,134.4,110.854,134.4Zm1.811,2.742c0,.322-.145.484-.457.484-.185,0-.4-.076-.407-.29h.161c.006.116.151.16.255.16.212,0,.3-.152.3-.373v-.064h0a.327.327,0,0,1-.306.179.445.445,0,0,1-.439-.5.463.463,0,0,1,.454-.52.322.322,0,0,1,.293.164h0v-.14h.153Zm-.245-3.526v-1.611h-.366v-.491h.366v-.806h.721v.806h.419v.491h-.419v1.522c0,.225.047.309.256.309a1.55,1.55,0,0,0,.163-.011v.5a4.579,4.579,0,0,1-.471.031C112.524,134.36,112.42,134.183,112.42,133.618Zm1.947,3.61-.148-.409h-.575l-.152.409h-.187l.531-1.358h.2l.531,1.358Zm1.124,0h-.162v-.666a.184.184,0,0,0-.2-.2.277.277,0,0,0-.291.309v.555h-.162V135.87h.162v.519h0a.329.329,0,0,1,.31-.168c.259,0,.339.149.339.36Zm.091-5.712h.721v2.813h-.721Zm.579,5.592a.235.235,0,0,0,.255-.192h.16a.394.394,0,0,1-.421.335c-.314,0-.462-.219-.472-.517a.473.473,0,0,1,.463-.513c.348,0,.455.326.445.564h-.736A.289.289,0,0,0,116.161,137.108Zm1.471.116a.216.216,0,0,1-.116.027c-.084,0-.137-.046-.137-.152a.431.431,0,0,1-.346.152c-.179,0-.326-.078-.326-.276,0-.222.166-.272.334-.3s.331-.021.331-.145c0-.143-.119-.164-.219-.164-.137,0-.238.042-.246.187h-.162c.01-.244.2-.33.417-.33.177,0,.369.04.369.271V137c0,.076,0,.11.052.11a.182.182,0,0,0,.049-.009Zm1.032,0H118.5V137.1h0a.33.33,0,0,1-.314.156.461.461,0,0,1-.453-.517.456.456,0,0,1,.449-.513.378.378,0,0,1,.318.155h0v-.506h.162Zm-.514-2.826a.673.673,0,0,1-.638-.371h-.01v.3h-.69V130.6h.721v1.182h.011a.674.674,0,0,1,.606-.335c.591,0,.863.434.863,1.48S118.741,134.4,118.15,134.4Zm.457-6.465v1.689h-.722v-2.814h.69v.377h.011a.727.727,0,0,1,.648-.45.965.965,0,0,1,.131.011v.69c-.078,0-.146-.01-.225-.01A.486.486,0,0,0,118.607,127.937Zm1.807,8.085h-.453v1.206h-.181v-1.206h-.452v-.152h1.086Zm.551,1.229a.517.517,0,1,1,.477-.514A.466.466,0,0,1,120.965,137.251Zm.6-2.922h-.69V134h-.011a.766.766,0,0,1-.716.4c-.455,0-.717-.24-.717-.8v-2.086h.722v1.94c0,.287.094.392.309.392.256,0,.381-.157.381-.465v-1.867h.722Zm.921,2.815c0,.322-.145.484-.457.484-.185,0-.4-.076-.407-.29h.161c.006.116.151.16.256.16.211,0,.294-.152.294-.373v-.064h0a.329.329,0,0,1-.307.179.445.445,0,0,1-.439-.5.464.464,0,0,1,.455-.52.321.321,0,0,1,.292.164h0v-.14h.153Zm.67-.036a.235.235,0,0,0,.255-.192h.159a.393.393,0,0,1-.42.335c-.314,0-.462-.219-.472-.517a.473.473,0,0,1,.463-.513c.348,0,.454.326.445.564h-.736A.289.289,0,0,0,123.154,137.108Zm1.02-.721h-.2V137c0,.076.021.087.122.087h.074v.143h-.123c-.168,0-.235-.034-.235-.215v-.626h-.167v-.142h.167v-.3h.162v.3h.2Zm.995.841h-.162v-.666a.184.184,0,0,0-.2-.2.277.277,0,0,0-.291.309v.555h-.162V135.87h.162v.519h0a.329.329,0,0,1,.31-.168c.259,0,.339.149.339.36Zm-.558-2.826c-.863.016-1.109-.5-1.109-1.48,0-.962.288-1.48,1.109-1.48.862-.015,1.108.5,1.108,1.48C125.719,133.885,125.432,134.4,124.611,134.4Zm1.228,2.706a.235.235,0,0,0,.255-.192h.159a.393.393,0,0,1-.42.335c-.314,0-.462-.219-.472-.517a.473.473,0,0,1,.462-.513c.349,0,.455.326.446.564h-.737A.29.29,0,0,0,125.839,137.108Zm1.111-.715c-.26,0-.355.146-.355.4v.438h-.162v-.983h.152v.207h0a.357.357,0,0,1,.361-.231Zm.639-4.25c-.079,0-.147-.01-.225-.01a.486.486,0,0,0-.533.507v1.689h-.722v-2.813h.69v.376h.011a.727.727,0,0,1,.648-.45,1.157,1.157,0,0,1,.131.011Zm.083-2.517h-.69v-.3h-.011a.672.672,0,0,1-.638.371c-.591,0-.863-.434-.863-1.48s.272-1.48.863-1.48a.676.676,0,0,1,.607.335h.01v-1.182h.722Z"/><path class="cls-1" d="M93.551,135.4h-.573v.669h.573a.391.391,0,0,0,.269-.08.329.329,0,0,0,.09-.259.316.316,0,0,0-.09-.251A.4.4,0,0,0,93.551,135.4Z"/><ellipse class="cls-1" cx="124.611" cy="132.922" rx="0.387" ry="0.988"/><path class="cls-1" d="M130.429,121.508h-41.3a1.87,1.87,0,0,0-1.867,1.868V143.93a1.87,1.87,0,0,0,1.867,1.867h41.3a1.87,1.87,0,0,0,1.867-1.867V123.376A1.87,1.87,0,0,0,130.429,121.508Zm1.447,22.422a1.148,1.148,0,0,1-.015.145,1.441,1.441,0,0,1-.747,1.121,1.422,1.422,0,0,1-.685.181h-41.3a1.463,1.463,0,0,1-1.168-.6,1.27,1.27,0,0,1-.092-.149,1.435,1.435,0,0,1-.173-.551,1.369,1.369,0,0,1-.014-.145h0a1.369,1.369,0,0,0,.014.145,1.435,1.435,0,0,0,.173.551,1.27,1.27,0,0,0,.092.149,1.463,1.463,0,0,0,1.168.6h41.3a1.422,1.422,0,0,0,.685-.181,1.441,1.441,0,0,0,.747-1.121,1.148,1.148,0,0,0,.015-.145Zm0-5.523v1.18h-.419v4.343a1.03,1.03,0,0,1-1.028,1.028h-41.3A1.029,1.029,0,0,1,88.1,143.93v-4.343h-.419V123.375a1.451,1.451,0,0,1,1.447-1.447h41.3a1.451,1.451,0,0,1,1.447,1.447Z"/><path class="cls-1" d="M92.27,142.857h.648l.131.387h.4L92.8,141.51h-.39l-.659,1.734h.387Zm.325-.92h0l.218.636h-.449Z"/><path class="cls-1" d="M93.986,143.278a.445.445,0,0,0,.384-.209h.007v.175H94.7v-1.256H94.36v.658c0,.255-.08.36-.268.36-.162,0-.22-.1-.22-.309v-.709h-.345v.772C93.527,143.071,93.619,143.278,93.986,143.278Z"/><path class="cls-1" d="M95.027,142.96c0,.252.182.3.4.3a1.434,1.434,0,0,0,.2-.012v-.27a.448.448,0,0,1-.107.01c-.117,0-.146-.029-.146-.146v-.621h.253v-.231h-.253v-.376h-.345v.376h-.208v.231h.208Z"/><path class="cls-1" d="M96.1,142.585c0-.254.08-.359.267-.359.162,0,.221.1.221.309v.709h.345v-.773c0-.31-.093-.517-.459-.517a.437.437,0,0,0-.367.209H96.1v-.653h-.345v1.734H96.1Z"/><path class="cls-1" d="M97.746,143.278a.563.563,0,0,0,.588-.423h-.3a.282.282,0,0,1-.272.163c-.194,0-.3-.1-.308-.318h.906a.631.631,0,1,0-1.251-.083A.613.613,0,0,0,97.746,143.278Zm-.009-1.064c.167,0,.242.092.274.267H97.45A.27.27,0,0,1,97.737,142.214Z"/><path class="cls-1" d="M98.873,142.585c0-.254.08-.359.267-.359.163,0,.221.1.221.309v.709h.344v-.773c0-.31-.092-.517-.459-.517a.442.442,0,0,0-.383.209h-.007v-.175h-.328v1.256h.345Z"/><path class="cls-1" d="M100.028,142.96c0,.252.182.3.4.3a1.434,1.434,0,0,0,.2-.012v-.27a.448.448,0,0,1-.107.01c-.117,0-.146-.029-.146-.146v-.621h.253v-.231h-.253v-.376h-.345v.376h-.209v.231h.209Z"/><rect class="cls-1" x="100.769" y="141.988" width="0.345" height="1.255"/><rect class="cls-1" x="100.769" y="141.51" width="0.345" height="0.284"/><path class="cls-1" d="M101.949,143.278a.561.561,0,0,0,.6-.515h-.332a.263.263,0,0,1-.275.255c-.216,0-.286-.214-.286-.4s.072-.408.293-.408a.231.231,0,0,1,.255.216h.338a.532.532,0,0,0-.59-.476.621.621,0,0,0-.641.68A.61.61,0,0,0,101.949,143.278Z"/><path class="cls-1" d="M103.776,142.566h.382c.191,0,.262.08.288.262a2.109,2.109,0,0,0,.061.416h.381a.912.912,0,0,1-.072-.411c-.013-.177-.066-.354-.253-.405v0a.425.425,0,0,0,.275-.435.477.477,0,0,0-.508-.478H103.4v1.734h.381Zm0-.76h.418c.172,0,.262.073.262.241s-.09.247-.262.247h-.418Z"/><path class="cls-1" d="M105.454,142.857h.648l.131.387h.4l-.648-1.734h-.391l-.658,1.734h.386Zm.325-.92h.005l.219.636h-.45Z"/><polygon class="cls-1" points="107.129 142.685 107.347 142.464 107.869 143.244 108.348 143.244 107.605 142.195 108.282 141.51 107.806 141.51 107.129 142.229 107.129 141.51 106.748 141.51 106.748 143.244 107.129 143.244 107.129 142.685"/><polygon class="cls-1" points="109.071 143.244 109.285 142.401 109.289 142.401 109.513 143.244 109.868 143.244 110.263 141.988 109.909 141.988 109.678 142.838 109.673 142.838 109.46 141.988 109.124 141.988 108.916 142.84 108.911 142.84 108.68 141.988 108.316 141.988 108.714 143.244 109.071 143.244"/><rect class="cls-1" x="110.387" y="141.988" width="0.345" height="1.255"/><rect class="cls-1" x="110.387" y="141.51" width="0.345" height="0.284"/><path class="cls-1" d="M111.317,142.678c0-.223.084-.4.339-.4a.644.644,0,0,1,.124.012v-.321a.262.262,0,0,0-.075-.012.443.443,0,0,0-.4.268h0v-.234h-.328v1.256h.345Z"/><path class="cls-1" d="M112.464,143.278a.562.562,0,0,0,.588-.423h-.3a.284.284,0,0,1-.272.163c-.2,0-.3-.1-.308-.318h.905a.631.631,0,1,0-1.251-.083A.614.614,0,0,0,112.464,143.278Zm-.009-1.064c.167,0,.242.092.274.267h-.56A.269.269,0,0,1,112.455,142.214Z"/><rect class="cls-1" x="113.256" y="141.51" width="0.345" height="1.734"/><path class="cls-1" d="M114.422,143.278a.562.562,0,0,0,.587-.423h-.3a.284.284,0,0,1-.272.163c-.195,0-.3-.1-.309-.318h.906a.631.631,0,1,0-1.25-.083A.613.613,0,0,0,114.422,143.278Zm-.01-1.064c.167,0,.243.092.274.267h-.561A.271.271,0,0,1,114.412,142.214Z"/><path class="cls-1" d="M115.734,143.047c-.133,0-.264-.063-.264-.211h-.328c.012.332.3.442.59.442s.573-.107.573-.438c0-.233-.2-.305-.4-.352s-.391-.063-.391-.187c0-.1.114-.116.192-.116.123,0,.226.037.235.17h.328c-.026-.308-.282-.4-.553-.4s-.547.083-.547.4c0,.224.2.289.4.335.246.051.391.09.391.194C115.96,143.008,115.831,143.047,115.734,143.047Z"/><path class="cls-1" d="M117.007,143.047c-.134,0-.265-.063-.265-.211h-.328c.012.332.3.442.59.442s.573-.107.573-.438c0-.233-.2-.305-.4-.352s-.391-.063-.391-.187c0-.1.114-.116.192-.116.124,0,.226.037.236.17h.327c-.026-.308-.281-.4-.553-.4s-.547.083-.547.4c0,.224.2.289.4.335.246.051.392.09.392.194C117.233,143.008,117.1,143.047,117.007,143.047Z"/><path class="cls-1" d="M118.808,142.622h.4a.558.558,0,1,0,0-1.112h-.782v1.734h.381Zm0-.816h.3c.175,0,.335.039.335.26s-.16.26-.335.26h-.3Z"/><path class="cls-1" d="M120.323,142.678c0-.223.085-.4.34-.4a.66.66,0,0,1,.124.012v-.321a.274.274,0,0,0-.076-.012.441.441,0,0,0-.4.268h-.005v-.234h-.328v1.256h.345Z"/><path class="cls-1" d="M121.5,143.278a.662.662,0,1,0-.648-.661A.616.616,0,0,0,121.5,143.278Zm0-1.064c.236,0,.306.2.306.4s-.07.4-.306.4-.3-.2-.3-.4S121.267,142.214,121.5,142.214Z"/><path class="cls-1" d="M122.852,143.278a.414.414,0,0,0,.381-.195h.006v.161h.327V141.51h-.345v.631h0a.435.435,0,0,0-.372-.187.582.582,0,0,0-.556.651C122.289,142.954,122.474,143.278,122.852,143.278Zm.086-1.064c.223,0,.3.194.3.4s-.07.406-.3.406-.3-.207-.3-.4S122.712,142.214,122.938,142.214Z"/><path class="cls-1" d="M124.253,143.278a.441.441,0,0,0,.383-.209h.008v.175h.328v-1.256h-.345v.658c0,.255-.08.36-.267.36-.163,0-.221-.1-.221-.309v-.709h-.345v.772C123.794,143.071,123.886,143.278,124.253,143.278Z"/><path class="cls-1" d="M125.8,143.278a.562.562,0,0,0,.605-.515h-.333a.263.263,0,0,1-.274.255c-.217,0-.287-.214-.287-.4s.073-.408.294-.408a.231.231,0,0,1,.255.216h.337a.531.531,0,0,0-.59-.476.622.622,0,0,0-.641.68A.611.611,0,0,0,125.8,143.278Z"/><path class="cls-1" d="M126.656,142.96c0,.252.183.3.4.3a1.434,1.434,0,0,0,.2-.012v-.27a.448.448,0,0,1-.107.01c-.117,0-.146-.029-.146-.146v-.621h.253v-.231H127v-.376h-.345v.376h-.208v.231h.208Z"/><g id="skating"><g id="Layer_2-8" data-name="Layer 2"><g id="Vector"><path class="cls-7" d="M203.745,283.481c0,.794-.368,5.456.281,6.254,1.181,1.452,11.06,1.06,11.535.61s.779-1.408.373-1.7-4.309-1.186-4.841-1.573a4.354,4.354,0,0,1-.9-3.388"/><path class="cls-7" d="M236.191,283.481c0,.794-.372,5.456.281,6.254,1.181,1.452,11.056,1.06,11.53.61s.784-1.408.373-1.7-4.3-1.186-4.841-1.573a4.318,4.318,0,0,1-.895-3.388"/><path class="cls-3" d="M246.7,198.907a6.035,6.035,0,0,0-.619,2.72c0,2.532,1.413,4.584,3.151,4.584s3.151-2.052,3.151-4.584a6.023,6.023,0,0,0-.62-2.72Z"/><path class="cls-6" d="M243.926,283.549c.969-1.128,3.728-84.652,3.728-84.652l-10.272-.222s-8.229,22.8-8.229,23.781,4.216,20.331,5.809,25.433c.1,2.773-.412,35.142.411,35.912S242.963,284.7,243.926,283.549Z"/><path class="cls-3" d="M239.618,199.924c0,4.787-15.489,39.528-18.452,43.845-1.8,5.751-8.994,38.836-10.039,39.62s-7.716,1.569-8.5,0,9.884-77.642,11.82-87.27S239.618,190.4,239.618,199.924Z"/><path class="cls-8" d="M216.868,145.293c3.146-3.63,30.645-5.91,33.884-3.388,6.534,5.082,1.936,56.634,1.452,58.57-.484.969-3.873-.968-3.873-.968-.484.484-24.686,1.452-33.884-3.388,0-2.42,1.453-12.586,1.453-12.586-1.937,0-7.261-1.452-8.229-2.9S213.165,149.558,216.868,145.293Z"/><path class="cls-5" d="M215.629,184.018c2.105.372,18.345,1.578,23.98,1.127"/><path class="cls-5" d="M240.465,179.806c-15.368-3.316-22.682-1.529-17.789-16.148"/><path class="cls-5" d="M249.13,161.465c-.082,1.38-1.055,38.091-1.055,38.091"/><path class="cls-3" d="M240.717,142.66c0,1.263-6.941,1.336-6.936,0v-8.432h6.936Z"/><path class="cls-7" d="M233.81,139.247c0-.75,2.28-3.959,3.6-3.519-1.631-.581-2.987-1.936-3.587-1.52Z"/><circle class="cls-3" cx="240.514" cy="128.55" r="9.008"/><ellipse class="cls-9" cx="248.827" cy="131.412" rx="0.784" ry="1.505" transform="translate(92.411 365.33) rotate(-84.07)"/><ellipse class="cls-9" cx="239.424" cy="130.428" rx="0.784" ry="1.505" transform="translate(84.959 355.096) rotate(-84.07)"/><path class="cls-10" d="M245.345,129.416c.237.426,1.5,2.251-.087,2.774"/><path class="cls-10" d="M242.039,133.831a2.62,2.62,0,0,1-1.4-1.215"/><circle class="cls-11" cx="233.234" cy="127.431" r="1.985"/><path class="cls-7" d="M234.574,129.179c0,2.643-2.9,4.356-3.9,4.356a1.088,1.088,0,0,1-1.212-.95,1.121,1.121,0,0,1-.008-.153c0-1.109.649-2.053,2.019-3.253a9.9,9.9,0,0,1-2.019-5.668c0-3.239,1.99-5.954,3.321-5.954a2.58,2.58,0,0,1,2.362,2.086c0-4.526,4.841-7.745,7.745-7.745,2.686,0,3.151,1.172,3.151,2.12a7.992,7.992,0,0,1-2.26,4.865,11.08,11.08,0,0,1,5.886-2.227c1.282,0,2.9.363,2.9,2.121,0,3.228-3.025,5.1-4.037,5.619a9.024,9.024,0,0,0-1.452-2.062c.189.61-.557,1.719-1.985,1.966C244.265,124.435,234.574,123.128,234.574,129.179Z"/><path class="cls-3" d="M249.338,177.347c.77,0,5.17,1.041,5.17,3.306,0,2.784-3.451,3.732-4.129,3.732-3.645,0-4.671-.624-10.49-.624,0-.683.126-3.81.935-4.114C241.811,179.661,244.614,177.347,249.338,177.347Z"/></g></g></g><g id="man-walking"><circle class="cls-12" cx="323.791" cy="196.41" r="3.747"/><rect class="cls-4" x="318.759" y="195.811" width="18.926" height="28.888" rx="4.983" transform="matrix(0.953, -0.305, 0.305, 0.953, -48.439, 109.941)"/><g id="Layer_2-9" data-name="Layer 2"><g id="vector-2" data-name="vector"><path class="cls-6" d="M307.23,185.547c-.36,1.721-6.79,53.5-6.79,53.5l28.244,37.525s-2.852,4.573-3.78,4.641-43.765-33.164-43.765-33.164l18.341-57.459Z"/><path class="cls-4" d="M272.563,285.788c-.118.582-.642,4.037-1.284,4.5-1.108.854-8.238-1.111-8.508-1.519s-.321-1.16.019-1.285,3.341-.132,3.784-.321a3.286,3.286,0,0,0,1.233-2.329"/><path class="cls-4" d="M327.842,276.828c.485.321,3.44,2.206,3.633,2.955.343,1.355-4.294,7.117-4.773,7.2s-1.195-.157-1.188-.533,1.2-3.115,1.207-3.6a3.282,3.282,0,0,0-1.647-2.056"/><path class="cls-3" d="M307.23,185.547c-1.445,3.234-2.473,19.006-22.331,53.027-1.8,3.918-10.829,48.441-10.829,48.441L265.4,285l17.125-101.225"/><path class="cls-13" d="M283.165,131.867c.681-1.74,24.942,1.208,26.631,3.058s-2.091,49.562-2.566,50.622c-2.332.481-23.734.08-24.7-1.77S276.719,148.362,283.165,131.867Z"/><path class="cls-13" d="M309.7,134.95c.983.874,13.627,20.372,14.452,26.509s.27,25.693.27,25.693a11.32,11.32,0,0,1-5.868,1.606c-1.284-3.642-7.014-22.462-7.014-22.462l-8.771-17.741"/><path class="cls-13" d="M283.268,131.832c-.565.3-13.258,25.915-14.594,29.1-2.772,2.775-16.122,17.048-16.122,17.048l1.043,5.444,22.694-14.684,5.855-7.191"/><path class="cls-14" d="M280.1,164.029c-.417-7.862-.35-16.81.964-24.351"/><line class="cls-14" x1="309.247" y1="161.707" x2="302.756" y2="148.574"/><path class="cls-3" d="M290.256,131.887c-.029.934,5.11,1.159,5.139.154l.186-6.25-5.138-.154Z"/><path d="M295.472,129.526c.019-.559-1.195-2.512-2.187-2.219,1.224-.389,1.866-1.828,2.3-1.516Z"/><circle class="cls-3" cx="290.87" cy="121.076" r="6.683"/><ellipse class="cls-9" cx="284.09" cy="121.768" rx="0.581" ry="1.114" transform="translate(153.801 402.052) rotate(-88.27)"/><ellipse class="cls-9" cx="291.097" cy="121.983" rx="0.581" ry="1.114" transform="translate(160.382 409.265) rotate(-88.27)"/><path class="cls-10" d="M286.846,120.646c-.216.292-1.324,1.506-.209,2.046"/><path class="cls-10" d="M288.837,124.2a1.983,1.983,0,0,0,1.15-.754"/><path class="cls-7" d="M296.953,123.841c.9-.847,1.4-8.565.6-9.23a3.208,3.208,0,0,0-1.969-.61s-6.336-6.5-9.085-6.5-2.39,1.654-2.39,2.5.752,6.074,1.786,6.636a7.786,7.786,0,0,1,2.017-1.545c.391.511,3.9,3.941,7.085,4.952C295.87,121.561,296.953,123.841,296.953,123.841Z"/><circle class="cls-11" cx="295.575" cy="120.874" r="1.471"/><ellipse class="cls-3" cx="251.403" cy="181.758" rx="4.243" ry="3.408" transform="translate(-57.567 209.626) rotate(-41.02)"/><ellipse class="cls-3" cx="321.719" cy="191.17" rx="3.934" ry="4.827" transform="translate(-7.94 14.042) rotate(-2.47)"/></g></g></g><g id="headphones"><g id="Layer_2-10" data-name="Layer 2"><g id="Layer_1-2-2" data-name="Layer 1-2"><path class="cls-15" d="M143.97,110.726h7.31a.863.863,0,0,1,.863.863h0a.863.863,0,0,1-.863.863h-7.31a.863.863,0,0,1-.863-.863h0A.863.863,0,0,1,143.97,110.726Z"/><path class="cls-15" d="M140.7,118.821h0a2.66,2.66,0,0,0-2.652,2.652v4.039a2.66,2.66,0,0,0,2.652,2.652h0Z"/><path class="cls-15" d="M154.636,118.821h0v9.343h0a2.66,2.66,0,0,0,2.651-2.652v-4.039A2.66,2.66,0,0,0,154.636,118.821Z"/><path class="cls-16" d="M141.051,127.677h-.381v-8.369h.381a.359.359,0,0,1,.359.359v7.651A.359.359,0,0,1,141.051,127.677Z"/><path class="cls-16" d="M154.28,127.677h.381v-8.369h-.381a.359.359,0,0,0-.359.359h0v7.651a.359.359,0,0,0,.359.359Z"/><path class="cls-17" d="M140.7,118.821a2.645,2.645,0,0,0-.417.033v9.276a2.646,2.646,0,0,0,.417.034h0v-9.343Z"/><path class="cls-17" d="M154.621,118.821a2.654,2.654,0,0,1,.417.033v9.276a2.655,2.655,0,0,1-.417.034h0v-9.343Z"/><path class="cls-18" d="M158.122,121.513a.511.511,0,0,1-.511-.511,9.986,9.986,0,0,0-19.972,0,.511.511,0,0,1-1.022,0,11.008,11.008,0,0,1,22.016,0A.511.511,0,0,1,158.122,121.513Z"/><path class="cls-18" d="M137.128,124.49a.511.511,0,0,1-.511-.511V121a.511.511,0,1,1,1.022,0v2.977A.511.511,0,0,1,137.128,124.49Z"/><path class="cls-18" d="M158.122,124.49a.511.511,0,0,1-.511-.511V121a.511.511,0,0,1,1.022,0v2.977A.511.511,0,0,1,158.122,124.49Z"/></g></g></g><g id="waving"><g id="Layer_2-11" data-name="Layer 2"><g id="Vector-3" data-name="Vector"><path class="cls-4" d="M135.7,285.253c-.085.663-.776,4.526-.3,5.25.863,1.314,9.151,1.83,9.586,1.493s.773-1.111.455-1.387-3.5-1.359-3.9-1.725a3.68,3.68,0,0,1-.459-2.924"/><path class="cls-4" d="M174.229,280.137c-.085.659-.773,4.526-.3,5.25.862,1.309,9.151,1.826,9.586,1.492s.772-1.11.455-1.386-3.5-1.363-3.9-1.729a3.673,3.673,0,0,1-.459-2.92"/><path class="cls-7" d="M160.679,178.869c.606,1.822,10.48,56.578,11.1,59.546s10.1,40.3,9.28,41.535-6.6,2.887-8.044,2.062-26.6-56.936-28.467-63.931,0-43.575,0-43.575Z"/><path class="cls-3" d="M153.147,179.276c-.382,3-6.174,52.413-7.878,60.221s-.142,45.548-1.4,46.138c-1.626,1.342-10.077,1.342-10.077,1.342-1.533-1.342-6.954-104.037-6.954-104.037S140.3,170.845,153.147,179.276Z"/><path class="cls-3" d="M163.981,116.391a36.428,36.428,0,0,0,3.9-1.5c.565-.333-1.863-4.42-2.989-5.6s-3.453-1.789-4.669-.732S159.755,112.218,163.981,116.391Z"/><path class="cls-8" d="M130.727,138.734c-7.455,4.254-16.133,29.561-16.133,31.5s15.86,30.985,16.812,30.985c.813-.866,4.258-4.969,4.258-4.969-.863-1.322-6.507-14.035-6.707-14.568,1.375.228,30.355,1.184,32.8.114s1.489-28.561,2.135-29.476,17.959-2.192,20.094-5.474c-.878-16.21-14.982-31.762-16.015-32.18s-4.384.723-4.534,1.48c.406,1.065,8.044,21.009,7.357,21.961C167.206,137.737,133.834,136.957,130.727,138.734Z"/><path class="cls-5" d="M134.586,156.14c-.7,1.252-7.829,13.384-7.751,14.4a67.525,67.525,0,0,0,2.122,11.123"/><path class="cls-5" d="M163.765,152.537a37.052,37.052,0,0,0-.37-7.028"/><path class="cls-3" d="M148.173,139.437c0,1.058-5.832,1.119-5.828,0v-7.084h5.828Z"/><path class="cls-7" d="M142.354,136.566c0-.63,1.915-3.322,3.025-2.956-1.37-.488-2.509-1.627-3.013-1.273Z"/><circle class="cls-3" cx="148.006" cy="127.579" r="7.568"/><ellipse class="cls-9" cx="155.198" cy="129.979" rx="0.656" ry="1.259" transform="translate(10.28 271.328) rotate(-84.232)"/><ellipse class="cls-9" cx="147.093" cy="129.161" rx="0.659" ry="1.265" transform="translate(3.427 262.123) rotate(-84.07)"/><path class="cls-10" d="M152.061,128.307c.2.357,1.261,1.891-.069,2.33"/><path class="cls-10" d="M149.287,132.007a2.182,2.182,0,0,1-1.175-1.02"/><circle class="cls-11" cx="141.886" cy="126.639" r="1.667"/><path class="cls-7" d="M143.025,128.111a4.135,4.135,0,0,1-3.278,3.66.914.914,0,0,1-1.03-.783.86.86,0,0,1-.007-.168c0-.927.549-1.724,1.7-2.729a8.412,8.412,0,0,1-1.7-4.746c0-2.725,1.671-5.006,2.79-5.006a2.168,2.168,0,0,1,1.984,1.757c0-3.807,4.067-6.532,6.507-6.532,2.261,0,2.647.985,2.647,1.786a6.592,6.592,0,0,1-1.9,4.067,9.305,9.305,0,0,1,4.95-1.871c1.073,0,2.44.3,2.44,1.785,0,2.713-2.542,4.282-3.392,4.722a7.672,7.672,0,0,0-1.22-1.737c.154.513-.472,1.444-1.672,1.655C151.158,124.122,143.025,123.024,143.025,128.111Z"/></g></g></g><g id="woman-sitting-laptop"><g id="Layer_2-12" data-name="Layer 2"><g id="Woman"><path class="cls-7" d="M108.538,243.965c.251,1.5,4.52,35.717,5.212,36.283s8.035,1.82,8.663.877c.126-1.5.3-25.359.689-27.493"/><path class="cls-3" d="M25.943,236.825c-2.96-1.461,3.213,27.44,19.459,27.44S89,239.517,93.423,239.517c9.774,0,32.912,19.192,34.726,19.192,1.389-1.389,4.167-3.82,4.167-4.775s-22.153-37.421-38.728-37.421C87.16,216.507,32.628,240.127,25.943,236.825Z"/><path class="cls-7" d="M35.086,237.316a46.874,46.874,0,0,0,10.867-4.595c-9.732,3.179-17.708,5.242-20.01,4.1-1.568-.772-.574,6.964,3.114,14.415C28.389,249.8,27.437,239.05,35.086,237.316Z"/><path class="cls-8" d="M42.247,186.616c2.559.069,15.884-.323,19.536,3.155,2.709,2.578,11.134,24.773,12.433,32.565-5.658,2.874-46.467,22.416-59.1,13.822-.278-6.679,1.018-33.212,9.278-47.129C27.416,187.017,39.786,186.55,42.247,186.616Z"/><path class="cls-3" d="M47.438,180.264H39.654v8.367c0,2.095,7.784,2.077,7.784,0Z"/><path class="cls-7" d="M39.654,185.308c0-.928,2.572-3.26,4.161-3.179.039-1.012-3.631-2.509-3.631-2.509l-.53,1.428Z"/><path class="cls-7" d="M55.589,180.264a11.641,11.641,0,0,0,.264-2.461,10.784,10.784,0,1,0-21.554,0,11.64,11.64,0,0,0,.263,2.461Z"/><path class="cls-3" d="M52.748,172.735a9.016,9.016,0,0,1-3.556-1.919c-5.239,3.837-8.595,3.891-8.957,3.891s-1.838,2.12-2.518,2.359l-.06-.036a8.173,8.173,0,1,0,15.708-4.295A2.547,2.547,0,0,1,52.748,172.735Z"/><circle class="cls-7" cx="39.238" cy="164.837" r="3.179"/><path class="cls-19" d="M40.654,174.531a1.338,1.338,0,0,0,0,2.673"/><path class="cls-19" d="M50.844,174.692c.393.524,1.4,1.44,0,2.413"/><path class="cls-19" d="M46.6,177.824a1.6,1.6,0,0,0,1.009,1.571"/><ellipse class="cls-18" cx="43.989" cy="177.267" rx="1.233" ry="0.641"/><ellipse class="cls-18" cx="53.159" cy="177.267" rx="1.233" ry="0.641"/><path class="cls-16" d="M61.5,209.748l8.319-2.141c.8,1.351,4.691,14.714,4.691,14.714l-12.843,5.413C61.837,225.2,62.343,213.628,61.5,209.748Z"/><path class="cls-19" d="M32.332,207.655a45.61,45.61,0,0,1-1.347,6.634"/><path class="cls-19" d="M61.5,209.748c-.2-1.584-1.374-10.508-3.371-15.2"/><path class="cls-3" d="M61.5,209.748l8.319-2.141c.8,1.351,4.691,14.714,4.691,14.714l-12.843,5.413C61.837,225.2,62.343,213.628,61.5,209.748Z"/><path class="cls-7" d="M128.4,258c.185.285,2.664,3.338,3.541,3.374s6.2-3.574,5.969-4.35-3.574-.272-4.149-.541a6.188,6.188,0,0,1-2.056-2.123"/><path class="cls-7" d="M115.3,280.565c-.062.333-.4,4.251.207,4.886s6.945,1.736,7.313,1.015-2.394-2.677-2.607-3.269a6.293,6.293,0,0,1,0-2.958"/><polygon class="cls-20" points="105.365 223.159 77.173 223.159 83.885 205.374 112.076 205.374 105.365 223.159"/><rect class="cls-20" x="53.682" y="222.489" width="28.191" height="0.671"/><path class="cls-3" d="M30.985,214.289c-.542,2.033-3.186,10.7-2.1,12.193s27.913-1.9,35.1-4.131c1.829-.6,3.185-2.17,4-2.371a4.284,4.284,0,0,1,4.832,3.048c-2.868,1.389-44.276,22.53-57.694,13.121-2.535-1.805,1.916-23.958,2.117-25.078C19.5,211.352,30.985,214.289,30.985,214.289Z"/><path class="cls-19" d="M61.885,222.908c.808-.192,1.515-.377,2.1-.557,1.829-.6,3.185-2.17,4-2.371a4.284,4.284,0,0,1,4.835,3.048"/></g></g></g></g></g></svg>